LilGrotesk-Regular.ufo
<glyph name="quotedbl" format="1">
  <advance width="360"/>
  <unicode hex="0022"/>
  <outline>
    <contour>
      <point x="26.98" y="548.43" type="line"/>
      <point x="76.98" y="548.43" type="line"/>
      <point x="86.89" y="766.22" type="line"/>
      <point x="11.16" y="766.22" type="line"/>
    </contour>
    <contour>
      <point x="249.73" y="548.43" type="line"/>
      <point x="299.73" y="548.43" type="line"/>
      <point x="309.64" y="766.22" type="line"/>
      <point x="233.91" y="766.22" type="line"/>
    </contour>
  </outline>
</glyph>
<glyph name="quotesingle" format="1">
  <advance width="135"/>
  <unicode hex="0027"/>
  <outline>
    <contour>
      <point x="26.98" y="548.43" type="line"/>
      <point x="76.98" y="548.43" type="line"/>
      <point x="86.89" y="766.22" type="line"/>
      <point x="11.16" y="766.22" type="line"/>
    </contour>
  </outline>
</glyph>
<glyph name="parenright" format="1">
  <advance width="269"/>
  <unicode hex="0029"/>
  <outline>
    <contour>
      <point x="50" y="-95" type="line"/>
      <point x="50" y="-95"/>
      <point x="169.08" y="107.12"/>
      <point x="169.08" y="324.58" type="curve" smooth="yes"/>
      <point x="169.08" y="541.43"/>
      <point x="50.64" y="726.53"/>
      <point x="50.64" y="726.51" type="curve"/>
      <point x="109.94" y="760.52" type="line"/>
      <point x="109.94" y="760.5"/>
      <point x="239.08" y="558.67"/>
      <point x="239.08" y="324.58" type="curve" smooth="yes"/>
      <point x="239.08" y="91.08"/>
      <point x="110.59" y="-127"/>
      <point x="110.59" y="-127" type="curve"/>
    </contour>
  </outline>
</glyph>
<glyph name="asterisk" format="1">
  <advance width="600"/>
  <unicode hex="002A"/>
  <outline>
    <contour>
      <point x="385.91" y="454.39" type="line"/>
      <point x="294.42" y="580.24" type="line"/>
      <point x="441.11" y="626.49" type="line"/>
      <point x="420.06" y="687.53" type="line"/>
      <point x="275.25" y="641.87" type="line"/>
      <point x="275.25" y="796.57" type="line"/>
      <point x="205.25" y="796.57" type="line"/>
      <point x="205.25" y="642.01" type="line"/>
      <point x="60.7" y="688.04" type="line"/>
      <point x="39.47" y="627.06" type="line"/>
      <point x="186.71" y="580.17" type="line"/>
      <point x="96.43" y="452.54" type="line"/>
      <point x="153.58" y="415.58" type="line"/>
      <point x="240.65" y="538.69" type="line"/>
      <point x="329.29" y="416.76" type="line"/>
    </contour>
  </outline>
</glyph>
<glyph name="plus" format="1">
  <advance width="600"/>
  <unicode hex="002B"/>
  <outline>
    <contour>
      <point x="561.06" y="238.53" type="line"/>
      <point x="561.06" y="302.53" type="line"/>
      <point x="325.53" y="302.53" type="line"/>
      <point x="325.53" y="541.06" type="line"/>
      <point x="255.54" y="541.06" type="line"/>
      <point x="255.54" y="302.53" type="line"/>
      <point x="20" y="302.53" type="line"/>
      <point x="20" y="238.53" type="line"/>
      <point x="255.54" y="238.53" type="line"/>
      <point x="255.54" y="0" type="line"/>
      <point x="325.53" y="0" type="line"/>
      <point x="325.53" y="238.53" type="line"/>
    </contour>
  </outline>
</glyph>
<glyph name="hyphen" format="1">
  <advance width="497"/>
  <unicode hex="002D"/>
  <outline>
    <contour>
      <point x="431.73" y="255.59" type="line"/>
      <point x="431.73" y="317.59" type="line"/>
      <point x="65.94" y="317.59" type="line"/>
      <point x="65.94" y="255.59" type="line"/>
    </contour>
  </outline>
</glyph>
<glyph name="period" format="1">
  <advance width="379"/>
  <unicode hex="002E"/>
  <outline>
    <contour>
      <point x="221.22" y="0"/>
      <point x="249.3" y="28.08"/>
      <point x="249.3" y="62.73" type="curve" smooth="yes"/>
      <point x="249.3" y="97.37"/>
      <point x="221.22" y="125.45"/>
      <point x="186.57" y="125.45" type="curve" smooth="yes"/>
      <point x="151.93" y="125.45"/>
      <point x="123.85" y="97.37"/>
      <point x="123.85" y="62.73" type="curve" smooth="yes"/>
      <point x="123.85" y="28.08"/>
      <point x="151.93" y="0"/>
      <point x="186.57" y="0" type="curve" smooth="yes"/>
    </contour>
  </outline>
</glyph>
<glyph name="slash" format="1">
  <advance width="600"/>
  <unicode hex="002F"/>
  <outline>
    <contour>
      <point x="147.38" y="-107" type="line"/>
      <point x="208.65" y="-125" type="line"/>
      <point x="462.92" y="718.1" type="line"/>
      <point x="401.65" y="736.57" type="line"/>
    </contour>
  </outline>
</glyph>
<glyph name="four" format="1">
  <advance width="586"/>
  <unicode hex="0034"/>
  <outline>
    <contour>
      <point x="529.64" y="151.59" type="line"/>
      <point x="529.64" y="225.59" type="line"/>
      <point x="462.26" y="225.59" type="line"/>
      <point x="462.26" y="699.98" type="line"/>
      <point x="377.88" y="699.98" type="line"/>
      <point x="37" y="226.11" type="line"/>
      <point x="37" y="151.59" type="line"/>
      <point x="392.26" y="151.59" type="line"/>
      <point x="392.26" y="-1.52588e-05" type="line"/>
      <point x="462.26" y="-1.52588e-05" type="line"/>
      <point x="462.26" y="151.59" type="line"/>
    </contour>
    <contour>
      <point x="392.26" y="225.59" type="line"/>
      <point x="120.39" y="225.59" type="line"/>
      <point x="392.26" y="603.56" type="line"/>
    </contour>
  </outline>
</glyph>
<glyph name="six" format="1">
  <advance width="465"/>
  <unicode hex="0036"/>
  <outline>
    <contour>
      <point x="363.76" y="700" type="line"/>
      <point x="283.37" y="700" type="line"/>
      <point x="56.3" y="308.08" type="line"/>
      <point x="55.25" y="306.26" type="line" smooth="yes"/>
      <point x="-1.00002" y="206.95"/>
      <point x="32.76" y="80.33"/>
      <point x="132.08" y="23.44" type="curve" smooth="yes"/>
      <point x="231.39" y="-33"/>
      <point x="358.02" y="0.960022"/>
      <point x="414.9" y="100.27" type="curve" smooth="yes"/>
      <point x="471.78" y="199.59"/>
      <point x="437.38" y="326.21"/>
      <point x="338.07" y="383.09" type="curve" smooth="yes"/>
      <point x="292.58" y="409.15"/>
      <point x="241.36" y="416.05"/>
      <point x="193.74" y="406.34" type="curve"/>
    </contour>
    <contour>
      <point x="316.51" y="69.34"/>
      <point x="232.67" y="46.79"/>
      <point x="166.67" y="84.3" type="curve" smooth="yes"/>
      <point x="101.09" y="122"/>
      <point x="78.63" y="205.74"/>
      <point x="116.1" y="271.67" type="curve" smooth="yes"/>
      <point x="153.7" y="337.31"/>
      <point x="237.43" y="360.06"/>
      <point x="303.28" y="322.35" type="curve" smooth="yes"/>
      <point x="369.11" y="284.64"/>
      <point x="391.86" y="200.9"/>
      <point x="354.15" y="135.06" type="curve" smooth="yes"/>
    </contour>
  </outline>
</glyph>
<glyph name="semicolon" format="1">
  <advance width="664"/>
  <unicode hex="003B"/>
  <outline>
    <contour>
      <point x="179.7" y="391.29"/>
      <point x="207.78" y="419.37"/>
      <point x="207.78" y="454.02" type="curve" smooth="yes"/>
      <point x="207.78" y="488.66"/>
      <point x="179.7" y="516.74"/>
      <point x="145.05" y="516.74" type="curve" smooth="yes"/>
      <point x="110.41" y="516.74"/>
      <point x="82.33" y="488.66"/>
      <point x="82.33" y="454.02" type="curve" smooth="yes"/>
      <point x="82.33" y="419.37"/>
      <point x="110.41" y="391.29"/>
      <point x="145.05" y="391.29" type="curve" smooth="yes"/>
    </contour>
    <contour>
      <point x="58.86" y="-98" type="line"/>
      <point x="121.5" y="-126" type="line"/>
      <point x="182.04" y="-7" type="line"/>
      <point x="182.04" y="90.61" type="line"/>
      <point x="111.04" y="90.61" type="line"/>
      <point x="111.04" y="6.89999" type="line"/>
    </contour>
  </outline>
</glyph>
<glyph name="equal" format="1">
  <advance width="600"/>
  <unicode hex="003D"/>
  <outline>
    <contour>
      <point x="520.4" y="387.78" type="line"/>
      <point x="520.4" y="451.78" type="line"/>
      <point x="88.24" y="451.78" type="line"/>
      <point x="88.24" y="387.78" type="line"/>
    </contour>
    <contour>
      <point x="520.4" y="127.97" type="line"/>
      <point x="520.4" y="191.97" type="line"/>
      <point x="88.24" y="191.97" type="line"/>
      <point x="88.24" y="127.97" type="line"/>
    </contour>
  </outline>
</glyph>
<glyph name="A" format="1">
  <advance width="653"/>
  <unicode hex="0041"/>
  <outline>
    <contour>
      <point x="478.84" y="223.09" type="line"/>
      <point x="566.18" y="0" type="line"/>
      <point x="640.5" y="0" type="line"/>
      <point x="366.45" y="700" type="line"/>
      <point x="285.06" y="700" type="line"/>
      <point x="11" y="0" type="line"/>
      <point x="85.32" y="0" type="line"/>
      <point x="172.66" y="223.09" type="line"/>
    </contour>
    <contour>
      <point x="453.79" y="287.09" type="line"/>
      <point x="197.72" y="287.09" type="line"/>
      <point x="325.76" y="614.12" type="line"/>
    </contour>
  </outline>
</glyph>
<glyph name="B" format="1">
  <advance width="593"/>
  <unicode hex="0042"/>
  <outline>
    <contour>
      <point x="86" y="700" type="line"/>
      <point x="86" y="0" type="line"/>
      <point x="345.62" y="0" type="line" smooth="yes"/>
      <point x="471.44" y="1.98"/>
      <point x="566.19" y="99.51"/>
      <point x="566.19" y="217.87" type="curve" smooth="yes"/>
      <point x="566.19" y="307.72"/>
      <point x="509.99" y="386.3"/>
      <point x="429.92" y="419.53" type="curve"/>
      <point x="460.04" y="449.24"/>
      <point x="478.72" y="490.53"/>
      <point x="478.72" y="536.18" type="curve" smooth="yes"/>
      <point x="478.72" y="626.65"/>
      <point x="405.37" y="700"/>
      <point x="314.9" y="700" type="curve" smooth="yes"/>
    </contour>
    <contour>
      <point x="156" y="436.35" type="line"/>
      <point x="156" y="636" type="line"/>
      <point x="314.89" y="636" type="line" smooth="yes"/>
      <point x="365.21" y="636"/>
      <point x="408.72" y="592.43"/>
      <point x="408.72" y="536.18" type="curve" smooth="yes"/>
      <point x="408.72" y="480.61"/>
      <point x="366.26" y="437.42"/>
      <point x="316.75" y="436.37" type="curve" smooth="yes"/>
      <point x="315.76" y="436.35" type="line"/>
    </contour>
    <contour>
      <point x="156" y="63.9998" type="line"/>
      <point x="156" y="372.35" type="line"/>
      <point x="314.9" y="372.35" type="line"/>
      <point x="317.43" y="372.37" type="line"/>
      <point x="345.07" y="372.37" type="line" smooth="yes"/>
      <point x="428.46" y="372.37"/>
      <point x="496.19" y="304.32"/>
      <point x="496.19" y="217.87" type="curve" smooth="yes"/>
      <point x="496.19" y="131.77"/>
      <point x="432.68" y="65.3599"/>
      <point x="345.62" y="63.9899" type="curve" smooth="yes"/>
    </contour>
  </outline>
</glyph>
<glyph name="F" format="1">
  <advance width="533"/>
  <unicode hex="0046"/>
  <outline>
    <contour>
      <point x="155" y="636.85" type="line"/>
      <point x="517.84" y="636.85" type="line"/>
      <point x="517.84" y="700.85" type="line"/>
      <point x="85" y="700.85" type="line"/>
      <point x="85" y="0" type="line"/>
      <point x="155" y="0" type="line"/>
      <point x="155" y="322.21" type="line"/>
      <point x="443.12" y="322.21" type="line"/>
      <point x="443.12" y="386.21" type="line"/>
      <point x="155" y="386.21" type="line"/>
    </contour>
  </outline>
</glyph>
<glyph name="J" format="1">
  <advance width="463"/>
  <unicode hex="004A"/>
  <outline>
    <contour>
      <point x="394.43" y="700.93" type="line"/>
      <point x="323.43" y="700.93" type="line"/>
      <point x="323.43" y="178.6" type="line" smooth="yes"/>
      <point x="324.75" y="113.18"/>
      <point x="273.4" y="62"/>
      <point x="213.71" y="62" type="curve" smooth="yes"/>
      <point x="154.14" y="62"/>
      <point x="103" y="113.19"/>
      <point x="103" y="178.72" type="curve"/>
      <point x="33" y="178.72" type="line"/>
      <point x="33" y="78.92"/>
      <point x="113.89" y="-2.00002"/>
      <point x="213.71" y="-2.00002" type="curve" smooth="yes"/>
      <point x="313.52" y="-2.00002"/>
      <point x="394.92" y="78.92"/>
      <point x="394.43" y="178.72" type="curve"/>
    </contour>
  </outline>
</glyph>
<glyph name="M" format="1">
  <advance width="861"/>
  <unicode hex="004D"/>
  <outline>
    <contour>
      <point x="430.37" y="194.33" type="line"/>
      <point x="161.81" y="700" type="line"/>
      <point x="86" y="700" type="line"/>
      <point x="86" y="0" type="line"/>
      <point x="156" y="0" type="line"/>
      <point x="156" y="564.51" type="line"/>
      <point x="430.24" y="48.14" type="line"/>
      <point x="704.61" y="562.72" type="line"/>
      <point x="704.61" y="6.10352e-05" type="line"/>
      <point x="774.61" y="6.10352e-05" type="line"/>
      <point x="774.61" y="700" type="line"/>
      <point x="699.98" y="700" type="line"/>
    </contour>
  </outline>
</glyph>
<glyph name="O" format="1">
  <advance width="774"/>
  <unicode hex="004F"/>
  <outline>
    <contour>
      <point x="189.63" y="702.48"/>
      <point x="36" y="542.3"/>
      <point x="36" y="351.22" type="curve" smooth="yes"/>
      <point x="36" y="157.22"/>
      <point x="193.25" y="-3.05176e-05"/>
      <point x="387.26" y="-3.05176e-05" type="curve" smooth="yes"/>
      <point x="557.12" y="-3.05176e-05"/>
      <point x="738.5" y="129.76"/>
      <point x="738.5" y="351.22" type="curve" smooth="yes"/>
      <point x="738.5" y="545.21"/>
      <point x="581.27" y="702.48"/>
      <point x="387.26" y="702.48" type="curve" smooth="yes"/>
    </contour>
    <contour>
      <point x="540.73" y="638.48"/>
      <point x="668.5" y="510.68"/>
      <point x="668.5" y="351.22" type="curve" smooth="yes"/>
      <point x="668.5" y="170.68"/>
      <point x="523.34" y="64"/>
      <point x="387.26" y="64" type="curve" smooth="yes"/>
      <point x="233.78" y="64"/>
      <point x="106" y="191.77"/>
      <point x="106" y="351.22" type="curve" smooth="yes"/>
      <point x="106" y="508.53"/>
      <point x="231.04" y="638.48"/>
      <point x="387.26" y="638.48" type="curve" smooth="yes"/>
    </contour>
  </outline>
</glyph>
<glyph name="R" format="1">
  <advance width="649"/>
  <unicode hex="0052"/>
  <outline>
    <contour>
      <point x="629.23" y="0" type="line"/>
      <point x="401.31" y="363.99" type="line"/>
      <point x="487.28" y="373.36"/>
      <point x="555.3" y="447.16"/>
      <point x="555.3" y="534.8" type="curve" smooth="yes"/>
      <point x="555.3" y="628.62"/>
      <point x="477.31" y="706.61"/>
      <point x="382.88" y="706.61" type="curve" smooth="yes"/>
      <point x="86" y="706.61" type="line"/>
      <point x="86" y="0" type="line"/>
      <point x="156" y="0" type="line"/>
      <point x="156" y="362.96" type="line"/>
      <point x="320.36" y="362.96" type="line"/>
      <point x="547.63" y="0" type="line"/>
    </contour>
    <contour>
      <point x="156" y="426.96" type="line"/>
      <point x="156" y="642.61" type="line"/>
      <point x="382.88" y="642.61" type="line" smooth="yes"/>
      <point x="438.87" y="642.61"/>
      <point x="485.3" y="596.16"/>
      <point x="485.3" y="534.8" type="curve" smooth="yes"/>
      <point x="485.3" y="473.42"/>
      <point x="438.88" y="426.98"/>
      <point x="382.8" y="426.98" type="curve" smooth="yes"/>
    </contour>
  </outline>
</glyph>
<glyph name="T" format="1">
  <advance width="516"/>
  <unicode hex="0054"/>
  <outline>
    <contour>
      <point x="510.14" y="636.26" type="line"/>
      <point x="510.14" y="700.26" type="line"/>
      <point x="6" y="700.26" type="line"/>
      <point x="6" y="636.26" type="line"/>
      <point x="223.07" y="636.26" type="line"/>
      <point x="223.07" y="0" type="line"/>
      <point x="293.07" y="0" type="line"/>
      <point x="293.07" y="636.26" type="line"/>
    </contour>
  </outline>
</glyph>
<glyph name="V" format="1">
  <advance width="645"/>
  <unicode hex="0056"/>
  <outline>
    <contour>
      <point x="631.14" y="700" type="line"/>
      <point x="556.91" y="700" type="line"/>
      <point x="322.81" y="95.72" type="line"/>
      <point x="88.25" y="700" type="line"/>
      <point x="14" y="700" type="line"/>
      <point x="285.71" y="0" type="line"/>
      <point x="359.95" y="0" type="line"/>
    </contour>
  </outline>
</glyph>
<glyph name="X" format="1">
  <advance width="777"/>
  <unicode hex="0058"/>
  <outline>
    <contour>
      <point x="672" y="0" type="line"/>
      <point x="759.15" y="0" type="line"/>
      <point x="433.92" y="400.06" type="line"/>
      <point x="678.12" y="700" type="line"/>
      <point x="590.93" y="700" type="line"/>
      <point x="390.34" y="453.62" type="line"/>
      <point x="189.75" y="700" type="line"/>
      <point x="102.57" y="700" type="line"/>
      <point x="343.3" y="404.3" type="line"/>
      <point x="18.0001" y="0" type="line"/>
      <point x="104.68" y="0" type="line"/>
      <point x="386.68" y="350.98" type="line"/>
    </contour>
  </outline>
</glyph>
<glyph name="Y" format="1">
  <advance width="638"/>
  <unicode hex="0059"/>
  <outline>
    <contour>
      <point x="89.76" y="700" type="line"/>
      <point x="4" y="700" type="line"/>
      <point x="283.99" y="339.46" type="line"/>
      <point x="283.99" y="0" type="line"/>
      <point x="353.99" y="0" type="line"/>
      <point x="353.99" y="339.46" type="line"/>
      <point x="634.13" y="700" type="line"/>
      <point x="548.34" y="700" type="line"/>
      <point x="318.99" y="404.83" type="line"/>
    </contour>
  </outline>
</glyph>
<glyph name="Z" format="1">
  <advance width="626"/>
  <unicode hex="005A"/>
  <outline>
    <contour>
      <point x="150.25" y="64" type="line"/>
      <point x="611.2" y="700" type="line"/>
      <point x="569.26" y="700" type="line"/>
      <point x="81.86" y="700.05" type="line"/>
      <point x="81.86" y="636.05" type="line"/>
      <point x="481.6" y="636.05" type="line"/>
      <point x="20" y="0" type="line"/>
      <point x="603.31" y="0" type="line"/>
      <point x="603.31" y="64" type="line"/>
    </contour>
  </outline>
</glyph>
<glyph name="bracketleft" format="1">
  <advance width="330"/>
  <unicode hex="005B"/>
  <outline>
    <contour>
      <point x="255.06" y="717.62" type="line"/>
      <point x="255.06" y="781.62" type="line"/>
      <point x="40" y="781.62" type="line"/>
      <point x="40" y="-142" type="line"/>
      <point x="255.06" y="-142" type="line"/>
      <point x="255.06" y="-78" type="line"/>
      <point x="110" y="-78" type="line"/>
      <point x="110" y="717.62" type="line"/>
    </contour>
  </outline>
</glyph>
<glyph name="b" format="1">
  <advance width="587"/>
  <unicode hex="0062"/>
  <outline>
    <contour>
      <point x="146" y="700" type="line"/>
      <point x="76" y="700" type="line"/>
      <point x="76" y="228.15" type="line"/>
      <point x="75.66" y="228.37" type="line"/>
      <point x="76" y="224.51" type="line"/>
      <point x="76" y="0.110001" type="line"/>
      <point x="146" y="0.110001" type="line"/>
      <point x="146" y="58.94" type="line"/>
      <point x="185.19" y="18.43"/>
      <point x="239.92" y="-5.99998"/>
      <point x="308.87" y="-5.99998" type="curve" smooth="yes"/>
      <point x="449.93" y="-5.99998"/>
      <point x="557.82" y="108.1"/>
      <point x="557.82" y="253.78" type="curve" smooth="yes"/>
      <point x="557.82" y="399.46"/>
      <point x="443.45" y="517.55"/>
      <point x="302.39" y="517.55" type="curve" smooth="yes"/>
      <point x="232.36" y="517.55"/>
      <point x="181.36" y="489.4"/>
      <point x="146" y="453.43" type="curve"/>
    </contour>
    <contour>
      <point x="146" y="355.97" type="line"/>
      <point x="163.11" y="403.39"/>
      <point x="214.46" y="453.56"/>
      <point x="302.39" y="453.56" type="curve" smooth="yes"/>
      <point x="402.35" y="453.56"/>
      <point x="487.82" y="365.59"/>
      <point x="487.82" y="253.78" type="curve" smooth="yes"/>
      <point x="487.82" y="141.25"/>
      <point x="408" y="58"/>
      <point x="308.87" y="58" type="curve" smooth="yes"/>
      <point x="223.38" y="58"/>
      <point x="166.41" y="107.42"/>
      <point x="146" y="158.18" type="curve"/>
    </contour>
  </outline>
</glyph>
<glyph name="f" format="1">
  <advance width="344"/>
  <unicode hex="0066"/>
  <outline>
    <contour>
      <point x="172.59" y="507.37" type="line"/>
      <point x="172.59" y="560.51" type="line" smooth="yes"/>
      <point x="172.59" y="612.23"/>
      <point x="184.74" y="653.45"/>
      <point x="235.6" y="653.45" type="curve" smooth="yes"/>
      <point x="255.35" y="653.45"/>
      <point x="271.52" y="649.13"/>
      <point x="307.83" y="628.45" type="curve"/>
      <point x="342.47" y="684.07" type="line"/>
      <point x="295.19" y="710.99"/>
      <point x="259.49" y="714.89"/>
      <point x="235.6" y="714.89" type="curve" smooth="yes"/>
      <point x="124.58" y="714.89"/>
      <point x="102.59" y="623.17"/>
      <point x="102.59" y="560.51" type="curve" smooth="yes"/>
      <point x="102.59" y="507.37" type="line"/>
      <point x="8.99998" y="507.37" type="line"/>
      <point x="8.99998" y="443.37" type="line"/>
      <point x="102.59" y="443.37" type="line"/>
      <point x="102.59" y="-0.00012207" type="line"/>
      <point x="172.59" y="-0.00012207" type="line"/>
      <point x="172.59" y="443.37" type="line"/>
      <point x="315.53" y="443.37" type="line"/>
      <point x="315.53" y="507.37" type="line"/>
    </contour>
  </outline>
</glyph>
<glyph name="i" format="1">
  <advance width="205"/>
  <unicode hex="0069"/>
  <outline>
    <contour>
      <point x="56.19" y="628.65"/>
      <point x="77.66" y="650.11"/>
      <point x="102.68" y="650.11" type="curve" smooth="yes"/>
      <point x="127.71" y="650.11"/>
      <point x="149.17" y="628.65"/>
      <point x="149.17" y="603.62" type="curve" smooth="yes"/>
      <point x="149.17" y="578.59"/>
      <point x="127.71" y="557.13"/>
      <point x="102.68" y="557.13" type="curve" smooth="yes"/>
      <point x="77.65" y="557.13"/>
      <point x="56.19" y="578.59"/>
      <point x="56.19" y="603.62" type="curve" smooth="yes"/>
    </contour>
    <contour>
      <point x="137.51" y="507.37" type="line"/>
      <point x="67.51" y="507.37" type="line"/>
      <point x="67.51" y="0" type="line"/>
      <point x="137.51" y="0" type="line"/>
    </contour>
  </outline>
</glyph>
<glyph name="k" format="1">
  <advance width="488"/>
  <unicode hex="006B"/>
  <outline>
    <contour>
      <point x="247.56" y="332.61" type="line"/>
      <point x="458.61" y="500" type="line"/>
      <point x="355.52" y="500" type="line"/>
      <point x="146" y="335.24" type="line"/>
      <point x="146" y="700" type="line"/>
      <point x="76" y="700" type="line"/>
      <point x="76" y="0" type="line"/>
      <point x="146" y="0" type="line"/>
      <point x="146" y="252.06" type="line"/>
      <point x="193.7" y="289.89" type="line"/>
      <point x="375.23" y="0" type="line"/>
      <point x="455.83" y="0" type="line"/>
    </contour>
  </outline>
</glyph>
<glyph name="m" format="1">
  <advance width="880"/>
  <unicode hex="006D"/>
  <outline>
    <contour>
      <point x="146" y="507.37" type="line"/>
      <point x="76" y="507.37" type="line"/>
      <point x="76" y="0" type="line"/>
      <point x="146" y="0" type="line"/>
      <point x="146" y="350.05" type="line"/>
      <point x="168.64" y="415.57"/>
      <point x="227.36" y="449.48"/>
      <point x="279.25" y="449.48" type="curve" smooth="yes"/>
      <point x="355.83" y="449.48"/>
      <point x="409.15" y="397.77"/>
      <point x="409.15" y="291.09" type="curve" smooth="yes"/>
      <point x="409.15" y="3.05176e-05" type="line"/>
      <point x="479.15" y="3.05176e-05" type="line"/>
      <point x="479.15" y="291.09" type="line" smooth="yes"/>
      <point x="479.15" y="317.83"/>
      <point x="476.17" y="342.46"/>
      <point x="470.53" y="364.81" type="curve"/>
      <point x="491.9" y="409.76"/>
      <point x="536.59" y="449.77"/>
      <point x="598.89" y="449.77" type="curve" smooth="yes"/>
      <point x="685.79" y="449.77"/>
      <point x="743.61" y="397.28"/>
      <point x="743.61" y="286.98" type="curve" smooth="yes"/>
      <point x="743.61" y="6.10352e-05" type="line"/>
      <point x="813.61" y="6.10352e-05" type="line"/>
      <point x="813.61" y="286.98" type="line" smooth="yes"/>
      <point x="813.61" y="429.64"/>
      <point x="724.59" y="513.37"/>
      <point x="598.89" y="513.37" type="curve" smooth="yes"/>
      <point x="529.74" y="513.37"/>
      <point x="476.06" y="477.01"/>
      <point x="444.54" y="427.15" type="curve"/>
      <point x="409.82" y="482.87"/>
      <point x="351.25" y="513.48"/>
      <point x="279.25" y="513.48" type="curve" smooth="yes"/>
      <point x="228.71" y="513.48"/>
      <point x="181.22" y="492.64"/>
      <point x="146" y="456.19" type="curve"/>
    </contour>
  </outline>
</glyph>
<glyph name="v" format="1">
  <advance width="469"/>
  <unicode hex="0076"/>
  <outline>
    <contour>
      <point x="249.42" y="0" type="line"/>
      <point x="458.88" y="500" type="line"/>
      <point x="383.96" y="500" type="line"/>
      <point x="234.44" y="143.08" type="line"/>
      <point x="84.92" y="500" type="line"/>
      <point x="10" y="500" type="line"/>
      <point x="219.46" y="0" type="line"/>
    </contour>
  </outline>
</glyph>
<glyph name="z" format="1">
  <advance width="539"/>
  <unicode hex="007A"/>
  <outline>
    <contour>
      <point x="159.11" y="64" type="line"/>
      <point x="481.04" y="454.29" type="line"/>
      <point x="481.04" y="500" type="line"/>
      <point x="66.63" y="500" type="line"/>
      <point x="66.63" y="436" type="line"/>
      <point x="386.3" y="436" type="line"/>
      <point x="61.9699" y="52.05" type="line"/>
      <point x="61.9699" y="-1.52588e-05" type="line"/>
      <point x="480.58" y="-1.52588e-05" type="line"/>
      <point x="480.58" y="64" type="line"/>
    </contour>
  </outline>
</glyph>
<glyph name="braceleft" format="1">
  <advance width="309"/>
  <unicode hex="007B"/>
  <outline>
    <contour>
      <point x="272.94" y="-86" type="line"/>
      <point x="269.72" y="-88"/>
      <point x="246.28" y="-99"/>
      <point x="221.14" y="-99" type="curve" smooth="yes"/>
      <point x="189.44" y="-99"/>
      <point x="155.03" y="-81"/>
      <point x="155.03" y="-3" type="curve" smooth="yes"/>
      <point x="155.03" y="48.49"/>
      <point x="161.4" y="107.78"/>
      <point x="161.4" y="162.91" type="curve" smooth="yes"/>
      <point x="161.4" y="226.3"/>
      <point x="152.98" y="284.18"/>
      <point x="116.74" y="318.35" type="curve"/>
      <point x="152.98" y="352.53"/>
      <point x="161.4" y="410.41"/>
      <point x="161.4" y="473.81" type="curve" smooth="yes"/>
      <point x="161.4" y="528.95"/>
      <point x="155.03" y="588.27"/>
      <point x="155.03" y="639.79" type="curve" smooth="yes"/>
      <point x="155.03" y="716.16"/>
      <point x="189.12" y="733.78"/>
      <point x="222" y="733.78" type="curve" smooth="yes"/>
      <point x="247.87" y="733.78"/>
      <point x="273" y="722.87"/>
      <point x="280.2" y="721.09" type="curve"/>
      <point x="297.02" y="783.22" type="line"/>
      <point x="297.01" y="783.22"/>
      <point x="260.4" y="796.88"/>
      <point x="217.61" y="796.88" type="curve" smooth="yes"/>
      <point x="157.43" y="796.88"/>
      <point x="85.03" y="769.86"/>
      <point x="85.03" y="639.79" type="curve" smooth="yes"/>
      <point x="85.03" y="576.28"/>
      <point x="90.84" y="516.21"/>
      <point x="90.84" y="467.43" type="curve" smooth="yes"/>
      <point x="90.84" y="397.18"/>
      <point x="78.79" y="350.35"/>
      <point x="20" y="350.35" type="curve"/>
      <point x="20" y="286.35" type="line"/>
      <point x="78.79" y="286.35"/>
      <point x="90.84" y="239.51"/>
      <point x="90.84" y="169.28" type="curve" smooth="yes"/>
      <point x="90.84" y="120.52"/>
      <point x="85.03" y="60.48"/>
      <point x="85.03" y="-3" type="curve" smooth="yes"/>
      <point x="85.03" y="-133"/>
      <point x="153.09" y="-162"/>
      <point x="213.37" y="-162" type="curve" smooth="yes"/>
      <point x="261.28" y="-162"/>
      <point x="304.28" y="-144"/>
      <point x="304.28" y="-144" type="curve"/>
    </contour>
  </outline>
</glyph>
<glyph name="bar" format="1">
  <advance width="600"/>
  <unicode hex="007C"/>
  <outline>
    <contour>
      <point x="362.27" y="769.15" type="line"/>
      <point x="292.27" y="769.15" type="line"/>
      <point x="292.27" y="-164" type="line"/>
      <point x="362.27" y="-164" type="line"/>
    </contour>
  </outline>
</glyph>
<glyph name="exclamdown" format="1">
  <advance width="600"/>
  <unicode hex="00A1"/>
  <outline>
    <contour>
      <point x="241.88" y="790.92"/>
      <point x="269.96" y="762.84"/>
      <point x="269.96" y="728.19" type="curve" smooth="yes"/>
      <point x="269.96" y="693.55"/>
      <point x="241.88" y="665.47"/>
      <point x="207.23" y="665.47" type="curve" smooth="yes"/>
      <point x="172.59" y="665.47"/>
      <point x="144.51" y="693.55"/>
      <point x="144.51" y="728.19" type="curve" smooth="yes"/>
      <point x="144.51" y="762.84"/>
      <point x="172.59" y="790.92"/>
      <point x="207.23" y="790.92" type="curve" smooth="yes"/>
    </contour>
    <contour>
      <point x="154.19" y="82.92" type="line"/>
      <point x="172.32" y="550.07" type="line"/>
      <point x="242.32" y="550.07" type="line"/>
      <point x="260.45" y="82.92" type="line"/>
    </contour>
  </outline>
</glyph>
<glyph name="sterling" format="1">
  <advance width="600"/>
  <unicode hex="00A3"/>
  <outline>
    <contour>
      <point x="528.4" y="90.47" type="line"/>
      <point x="523.3" y="72.59"/>
      <point x="519.03" y="38.4"/>
      <point x="441.73" y="38.4" type="curve" smooth="yes"/>
      <point x="328.36" y="38.4"/>
      <point x="304.98" y="101.14"/>
      <point x="224.78" y="118.64" type="curve"/>
      <point x="236.48" y="164.26"/>
      <point x="240.4" y="230.22"/>
      <point x="204" y="309.56" type="curve"/>
      <point x="410.3" y="309.56" type="line"/>
      <point x="410.3" y="373.56" type="line"/>
      <point x="176.76" y="373.56" type="line"/>
      <point x="124.63" y="521.84"/>
      <point x="147.72" y="677.13"/>
      <point x="315.54" y="669.93" type="curve" smooth="yes"/>
      <point x="354.06" y="668.28"/>
      <point x="387.02" y="657.63"/>
      <point x="408.68" y="632.27" type="curve"/>
      <point x="461.9" y="673.84" type="line"/>
      <point x="429.52" y="711.75"/>
      <point x="367.57" y="731.77"/>
      <point x="318.55" y="733.87" type="curve" smooth="yes"/>
      <point x="86.19" y="743.84"/>
      <point x="52.2701" y="547.12"/>
      <point x="104.43" y="373.56" type="curve"/>
      <point x="20.2301" y="373.56" type="line"/>
      <point x="20.2301" y="309.56" type="line"/>
      <point x="128" y="309.56" type="line"/>
      <point x="137.27" y="289.55" type="line" smooth="yes"/>
      <point x="173.1" y="216.14"/>
      <point x="165.7" y="158.44"/>
      <point x="153.53" y="121.55" type="curve"/>
      <point x="40.3301" y="107.95"/>
      <point x="13.4501" y="11.0699"/>
      <point x="13.4501" y="10.9799" type="curve"/>
      <point x="80.5301" y="-7.00014" type="line"/>
      <point x="80.5501" y="-7.00014"/>
      <point x="99.0201" y="59.1299"/>
      <point x="180.68" y="59.1299" type="curve" smooth="yes"/>
      <point x="264.25" y="59.1299"/>
      <point x="305.14" y="-26.0001"/>
      <point x="441.73" y="-26.0001" type="curve" smooth="yes"/>
      <point x="581.47" y="-26.0001"/>
      <point x="592.38" y="61.2199"/>
      <point x="595.71" y="72.8999" type="curve"/>
    </contour>
  </outline>
</glyph>
<glyph name="currency" format="1">
  <advance width="720"/>
  <unicode hex="00A4"/>
  <outline>
    <contour>
      <point x="660.96" y="599.46" type="line"/>
      <point x="611.46" y="644.72" type="line"/>
      <point x="498.85" y="532.1" type="line"/>
      <point x="463.02" y="558.13"/>
      <point x="418.92" y="573.49"/>
      <point x="371.24" y="573.49" type="curve" smooth="yes"/>
      <point x="323.69" y="573.49"/>
      <point x="279.7" y="558.21"/>
      <point x="243.92" y="532.3" type="curve"/>
      <point x="131.5" y="644.72" type="line"/>
      <point x="82" y="599.47" type="line"/>
      <point x="196.29" y="485.09" type="line"/>
      <point x="169.69" y="449.03"/>
      <point x="153.96" y="404.46"/>
      <point x="153.96" y="356.21" type="curve" smooth="yes"/>
      <point x="153.96" y="308.53"/>
      <point x="169.32" y="264.43"/>
      <point x="195.35" y="228.6" type="curve"/>
      <point x="82.01" y="115.26" type="line"/>
      <point x="131.51" y="69.6299" type="line"/>
      <point x="242.76" y="180.96" type="line"/>
      <point x="278.74" y="154.53"/>
      <point x="323.17" y="138.92"/>
      <point x="371.24" y="138.92" type="curve" smooth="yes"/>
      <point x="419.44" y="138.92"/>
      <point x="463.97" y="154.61"/>
      <point x="500.01" y="181.17" type="curve"/>
      <point x="611.46" y="69.6299" type="line"/>
      <point x="660.96" y="115.26" type="line"/>
      <point x="547.34" y="228.88" type="line"/>
      <point x="573.25" y="264.66"/>
      <point x="588.53" y="308.65"/>
      <point x="588.53" y="356.21" type="curve" smooth="yes"/>
      <point x="588.53" y="404.34"/>
      <point x="572.88" y="448.81"/>
      <point x="546.4" y="484.82" type="curve"/>
    </contour>
    <contour>
      <point x="291.59" y="202.92"/>
      <point x="223.96" y="270.58"/>
      <point x="223.96" y="356.21" type="curve" smooth="yes"/>
      <point x="223.96" y="441.83"/>
      <point x="291.59" y="509.49"/>
      <point x="371.24" y="509.49" type="curve" smooth="yes"/>
      <point x="450.89" y="509.49"/>
      <point x="518.53" y="441.83"/>
      <point x="518.53" y="356.21" type="curve" smooth="yes"/>
      <point x="518.53" y="270.58"/>
      <point x="450.89" y="202.92"/>
      <point x="371.24" y="202.92" type="curve" smooth="yes"/>
    </contour>
  </outline>
</glyph>
<glyph name="brokenbar" format="1">
  <advance width="600"/>
  <unicode hex="00A6"/>
  <outline>
    <contour>
      <point x="232.99" y="750.39" type="line"/>
      <point x="162.99" y="750.39" type="line"/>
      <point x="162.99" y="423.64" type="line"/>
      <point x="232.99" y="423.64" type="line"/>
    </contour>
    <contour>
      <point x="232.99" y="258.19" type="line"/>
      <point x="162.99" y="258.19" type="line"/>
      <point x="162.99" y="-69" type="line"/>
      <point x="232.99" y="-69" type="line"/>
    </contour>
  </outline>
</glyph>
<glyph name="dieresis" format="1">
  <advance width="391"/>
  <unicode hex="00A8"/>
  <outline>
    <contour>
      <point x="11.77" y="633.79"/>
      <point x="33.24" y="655.25"/>
      <point x="58.26" y="655.25" type="curve" smooth="yes"/>
      <point x="83.29" y="655.25"/>
      <point x="104.75" y="633.78"/>
      <point x="104.75" y="608.75" type="curve" smooth="yes"/>
      <point x="104.75" y="583.73"/>
      <point x="83.29" y="562.26"/>
      <point x="58.26" y="562.26" type="curve" smooth="yes"/>
      <point x="33.24" y="562.26"/>
      <point x="11.77" y="583.72"/>
      <point x="11.77" y="608.75" type="curve" smooth="yes"/>
    </contour>
    <contour>
      <point x="291.11" y="633.79"/>
      <point x="312.58" y="655.25"/>
      <point x="337.6" y="655.25" type="curve" smooth="yes"/>
      <point x="362.63" y="655.25"/>
      <point x="384.09" y="633.78"/>
      <point x="384.09" y="608.75" type="curve" smooth="yes"/>
      <point x="384.09" y="583.73"/>
      <point x="362.63" y="562.26"/>
      <point x="337.6" y="562.26" type="curve" smooth="yes"/>
      <point x="312.58" y="562.26"/>
      <point x="291.11" y="583.72"/>
      <point x="291.11" y="608.75" type="curve" smooth="yes"/>
    </contour>
  </outline>
</glyph>
<glyph name="copyright" format="1">
  <advance width="817"/>
  <unicode hex="00A9"/>
  <outline>
    <contour>
      <point x="155.83" y="53.12"/>
      <point x="275.81" y="-19"/>
      <point x="408.1" y="-19" type="curve" smooth="yes"/>
      <point x="610.68" y="-19"/>
      <point x="779.2" y="149.32"/>
      <point x="779.2" y="350.1" type="curve" smooth="yes"/>
      <point x="779.2" y="413.17"/>
      <point x="762.56" y="474.62"/>
      <point x="733.94" y="526.98" type="curve" smooth="yes"/>
      <point x="672.49" y="639.4"/>
      <point x="547.29" y="719.4"/>
      <point x="408.1" y="719.4" type="curve" smooth="yes"/>
      <point x="205.52" y="719.4"/>
      <point x="37" y="550.88"/>
      <point x="37" y="350.1" type="curve" smooth="yes"/>
      <point x="37" y="280.19"/>
      <point x="57.45" y="212.53"/>
      <point x="92.08" y="156.41" type="curve" smooth="yes"/>
    </contour>
    <contour>
      <point x="122.65" y="237.01"/>
      <point x="107" y="288.8"/>
      <point x="107" y="350.1" type="curve" smooth="yes"/>
      <point x="107" y="520.18"/>
      <point x="242.23" y="655.4"/>
      <point x="408.1" y="655.4" type="curve" smooth="yes"/>
      <point x="521.36" y="655.4"/>
      <point x="619.77" y="592.8"/>
      <point x="672.52" y="496.29" type="curve" smooth="yes"/>
      <point x="696.46" y="452.49"/>
      <point x="709.2" y="405.43"/>
      <point x="709.2" y="350.1" type="curve" smooth="yes"/>
      <point x="709.2" y="180.03"/>
      <point x="573.98" y="44.8"/>
      <point x="408.1" y="44.8" type="curve" smooth="yes"/>
      <point x="300.7" y="44.8"/>
      <point x="206.34" y="101.41"/>
      <point x="151.65" y="190.02" type="curve" smooth="yes"/>
    </contour>
    <contour>
      <point x="514.74" y="269.92" type="line"/>
      <point x="489.47" y="234.67"/>
      <point x="453.07" y="214.2"/>
      <point x="413.32" y="214.2" type="curve" smooth="yes"/>
      <point x="343.64" y="214.2"/>
      <point x="285.07" y="275.76"/>
      <point x="285.07" y="356.63" type="curve" smooth="yes"/>
      <point x="285.07" y="432.57"/>
      <point x="338.46" y="499.06"/>
      <point x="413.32" y="499.06" type="curve" smooth="yes"/>
      <point x="452.02" y="499.06"/>
      <point x="483.38" y="482.62"/>
      <point x="509.77" y="450.04" type="curve"/>
      <point x="564.16" y="490.32" type="line"/>
      <point x="529.63" y="532.95"/>
      <point x="472.84" y="563.06"/>
      <point x="413.32" y="563.06" type="curve" smooth="yes"/>
      <point x="296.69" y="563.06"/>
      <point x="215.07" y="458.93"/>
      <point x="215.07" y="356.63" type="curve" smooth="yes"/>
      <point x="215.07" y="246.1"/>
      <point x="305.86" y="150.2"/>
      <point x="413.32" y="150.2" type="curve" smooth="yes"/>
      <point x="477.08" y="150.2"/>
      <point x="537.23" y="184.65"/>
      <point x="571.63" y="232.64" type="curve"/>
    </contour>
  </outline>
</glyph>
<glyph name="logicalnot" format="1">
  <advance width="744"/>
  <unicode hex="00AC"/>
  <outline>
    <contour>
      <point x="48" y="443.13" type="line"/>
      <point x="48" y="379.13" type="line"/>
      <point x="628.73" y="379.13" type="line"/>
      <point x="628.73" y="157.37" type="line"/>
      <point x="698.73" y="157.37" type="line"/>
      <point x="698.73" y="443.13" type="line"/>
    </contour>
  </outline>
</glyph>
<glyph name="registered" format="1">
  <advance width="817"/>
  <unicode hex="00AE"/>
  <outline>
    <contour>
      <point x="672.49" y="639.4"/>
      <point x="547.29" y="719.4"/>
      <point x="408.1" y="719.4" type="curve" smooth="yes"/>
      <point x="205.52" y="719.4"/>
      <point x="37" y="550.88"/>
      <point x="37" y="350.1" type="curve" smooth="yes"/>
      <point x="37" y="280.18"/>
      <point x="57.45" y="212.53"/>
      <point x="92.08" y="156.41" type="curve" smooth="yes"/>
      <point x="155.82" y="53.1199"/>
      <point x="275.81" y="-19"/>
      <point x="408.1" y="-19" type="curve" smooth="yes"/>
      <point x="610.68" y="-19"/>
      <point x="779.2" y="149.32"/>
      <point x="779.2" y="350.1" type="curve" smooth="yes"/>
      <point x="779.2" y="413.17"/>
      <point x="762.56" y="474.62"/>
      <point x="733.94" y="526.98" type="curve" smooth="yes"/>
    </contour>
    <contour>
      <point x="300.7" y="44.8"/>
      <point x="206.34" y="101.41"/>
      <point x="151.65" y="190.02" type="curve" smooth="yes"/>
      <point x="122.65" y="237.01"/>
      <point x="107" y="288.79"/>
      <point x="107" y="350.1" type="curve" smooth="yes"/>
      <point x="107" y="520.18"/>
      <point x="242.23" y="655.4"/>
      <point x="408.1" y="655.4" type="curve" smooth="yes"/>
      <point x="521.36" y="655.4"/>
      <point x="619.77" y="592.8"/>
      <point x="672.52" y="496.28" type="curve" smooth="yes"/>
      <point x="696.46" y="452.48"/>
      <point x="709.2" y="405.43"/>
      <point x="709.2" y="350.1" type="curve" smooth="yes"/>
      <point x="709.2" y="180.03"/>
      <point x="573.98" y="44.8"/>
      <point x="408.1" y="44.8" type="curve" smooth="yes"/>
    </contour>
    <contour>
      <point x="276.97" y="562.7" type="line"/>
      <point x="276.97" y="173.22" type="line"/>
      <point x="346.97" y="173.22" type="line"/>
      <point x="346.97" y="349.36" type="line"/>
      <point x="382.95" y="349.36" type="line"/>
      <point x="488.42" y="173.3" type="line"/>
      <point x="575.85" y="173.3" type="line"/>
      <point x="460.7" y="349.83" type="line"/>
      <point x="514.26" y="355.02"/>
      <point x="559.72" y="403.37"/>
      <point x="559.72" y="456.03" type="curve" smooth="yes"/>
      <point x="559.72" y="511.76"/>
      <point x="508.78" y="562.7"/>
      <point x="451.25" y="562.7" type="curve" smooth="yes"/>
    </contour>
    <contour>
      <point x="346.97" y="413.36" type="line"/>
      <point x="346.97" y="498.7" type="line"/>
      <point x="451.25" y="498.7" type="line" smooth="yes"/>
      <point x="472.35" y="498.7"/>
      <point x="489.72" y="481.28"/>
      <point x="489.72" y="456.03" type="curve" smooth="yes"/>
      <point x="489.72" y="430.78"/>
      <point x="472.35" y="413.37"/>
      <point x="451.21" y="413.37" type="curve" smooth="yes"/>
    </contour>
  </outline>
</glyph>
<glyph name="degree" format="1">
  <advance width="600"/>
  <unicode hex="00B0"/>
  <outline>
    <contour>
      <point x="391.29" y="485.77"/>
      <point x="461.86" y="556.34"/>
      <point x="461.86" y="640.62" type="curve" smooth="yes"/>
      <point x="461.86" y="724.9"/>
      <point x="391.29" y="795.47"/>
      <point x="304.01" y="795.47" type="curve" smooth="yes"/>
      <point x="216.74" y="795.47"/>
      <point x="146.16" y="724.9"/>
      <point x="146.16" y="640.62" type="curve" smooth="yes"/>
      <point x="146.16" y="556.34"/>
      <point x="216.74" y="485.77"/>
      <point x="304.01" y="485.77" type="curve" smooth="yes"/>
    </contour>
    <contour>
      <point x="255.53" y="549.77"/>
      <point x="216.16" y="589.14"/>
      <point x="216.16" y="640.62" type="curve" smooth="yes"/>
      <point x="216.16" y="692.1"/>
      <point x="255.53" y="731.47"/>
      <point x="304.01" y="731.47" type="curve" smooth="yes"/>
      <point x="352.49" y="731.47"/>
      <point x="391.86" y="692.1"/>
      <point x="391.86" y="640.62" type="curve" smooth="yes"/>
      <point x="391.86" y="589.14"/>
      <point x="352.49" y="549.77"/>
      <point x="304.01" y="549.77" type="curve" smooth="yes"/>
    </contour>
  </outline>
</glyph>
<glyph name="periodcentered" format="1">
  <advance width="600"/>
  <unicode hex="00B7"/>
  <outline>
    <contour>
      <point x="221.22" y="239.68"/>
      <point x="249.3" y="267.76"/>
      <point x="249.3" y="302.4" type="curve" smooth="yes"/>
      <point x="249.3" y="337.04"/>
      <point x="221.22" y="365.13"/>
      <point x="186.57" y="365.13" type="curve" smooth="yes"/>
      <point x="151.93" y="365.13"/>
      <point x="123.85" y="337.04"/>
      <point x="123.85" y="302.4" type="curve" smooth="yes"/>
      <point x="123.85" y="267.76"/>
      <point x="151.93" y="239.68"/>
      <point x="186.57" y="239.68" type="curve" smooth="yes"/>
    </contour>
  </outline>
</glyph>
<glyph name="cedilla" format="1">
  <advance width="600"/>
  <unicode hex="00B8"/>
  <outline>
    <contour>
      <point x="212.03" y="-128" type="line"/>
      <point x="264.89" y="-164" type="line"/>
      <point x="354.99" y="-32" type="line"/>
      <point x="302.13" y="3.61" type="line"/>
    </contour>
  </outline>
</glyph>
<glyph name="ordmasculine" format="1">
  <advance width="403"/>
  <unicode hex="00BA"/>
  <outline>
    <contour>
      <point x="374.9" y="703.05"/>
      <point x="296.53" y="781.71"/>
      <point x="200.95" y="781.71" type="curve" smooth="yes"/>
      <point x="106.14" y="781.71"/>
      <point x="27" y="703.43"/>
      <point x="27" y="610.16" type="curve" smooth="yes"/>
      <point x="27" y="517.26"/>
      <point x="105.37" y="438.61"/>
      <point x="200.95" y="438.61" type="curve" smooth="yes"/>
      <point x="297.07" y="438.61"/>
      <point x="374.9" y="518.17"/>
      <point x="374.9" y="610.16" type="curve" smooth="yes"/>
    </contour>
    <contour>
      <point x="310.42" y="545.83"/>
      <point x="258.85" y="493.28"/>
      <point x="200.95" y="493.28" type="curve" smooth="yes"/>
      <point x="143.24" y="493.28"/>
      <point x="91.49" y="545.2"/>
      <point x="91.49" y="610.16" type="curve" smooth="yes"/>
      <point x="91.49" y="675.27"/>
      <point x="143.73" y="727.03"/>
      <point x="200.95" y="727.03" type="curve" smooth="yes"/>
      <point x="258.66" y="727.03"/>
      <point x="310.42" y="675.11"/>
      <point x="310.42" y="610.16" type="curve" smooth="yes"/>
    </contour>
  </outline>
</glyph>
<glyph name="onequarter" format="1">
  <advance width="745"/>
  <unicode hex="00BC"/>
  <outline>
    <contour>
      <point x="84" y="845.28" type="line"/>
      <point x="84" y="762.27" type="line"/>
      <point x="175.84" y="830.53" type="line"/>
      <point x="175.84" y="502.77" type="line"/>
      <point x="246.84" y="502.77" type="line"/>
      <point x="246.84" y="901.57" type="line"/>
      <point x="183.48" y="901.57" type="line"/>
    </contour>
    <contour>
      <point x="94.75" y="18.33" type="line"/>
      <point x="152.44" y="-18" type="line"/>
      <point x="726.19" y="841.34" type="line"/>
      <point x="668.81" y="878" type="line"/>
    </contour>
    <contour>
      <point x="603.07" y="84.9" type="line"/>
      <point x="651.17" y="84.9" type="line"/>
      <point x="651.17" y="143.9" type="line"/>
      <point x="603.07" y="143.9" type="line"/>
      <point x="603.07" y="397.66" type="line"/>
      <point x="552.16" y="397.66" type="line"/>
      <point x="385.74" y="140.86" type="line"/>
      <point x="385.74" y="84.9" type="line"/>
      <point x="533.07" y="84.9" type="line"/>
      <point x="533.07" y="-0.939957" type="line"/>
      <point x="603.07" y="-0.939957" type="line"/>
    </contour>
    <contour>
      <point x="533.07" y="253.91" type="line"/>
      <point x="533.07" y="143.9" type="line"/>
      <point x="463.53" y="143.9" type="line"/>
    </contour>
  </outline>
</glyph>
<glyph name="AE" format="1">
  <advance width="1102"/>
  <unicode hex="00C6"/>
  <outline>
    <contour>
      <point x="1027.4" y="0" type="line"/>
      <point x="1027.4" y="64" type="line"/>
      <point x="644.24" y="64" type="line"/>
      <point x="644.24" y="321.67" type="line"/>
      <point x="951.99" y="321.67" type="line"/>
      <point x="951.99" y="385.67" type="line"/>
      <point x="644.24" y="385.67" type="line"/>
      <point x="644.24" y="636.32" type="line"/>
      <point x="1026.71" y="636.32" type="line"/>
      <point x="1026.71" y="700" type="line"/>
      <point x="574.24" y="700" type="line"/>
      <point x="27.9" y="-6.10352e-05" type="line"/>
      <point x="117.5" y="-6.10352e-05" type="line"/>
      <point x="291.35" y="223.09" type="line"/>
      <point x="574.24" y="223.09" type="line"/>
      <point x="574.24" y="-6.10352e-05" type="line"/>
    </contour>
    <contour>
      <point x="574.24" y="586.12" type="line"/>
      <point x="574.24" y="287.09" type="line"/>
      <point x="341.22" y="287.09" type="line"/>
    </contour>
  </outline>
</glyph>
<glyph name="Egrave" format="1">
  <advance width="570"/>
  <unicode hex="00C8"/>
  <outline>
    <contour>
      <point x="414.89" y="754" type="line"/>
      <point x="430.66" y="814.05" type="line"/>
      <point x="233.92" y="908.42" type="line"/>
      <point x="211.79" y="833.53" type="line"/>
    </contour>
    <contour>
      <point x="539.16" y="63.9999" type="line"/>
      <point x="156" y="63.9999" type="line"/>
      <point x="156" y="321.67" type="line"/>
      <point x="463.75" y="321.67" type="line"/>
      <point x="463.75" y="385.67" type="line"/>
      <point x="156" y="385.67" type="line"/>
      <point x="156" y="636.32" type="line"/>
      <point x="538.46" y="636.32" type="line"/>
      <point x="538.46" y="700" type="line"/>
      <point x="86.0001" y="700" type="line"/>
      <point x="86.0001" y="-6.10352e-05" type="line"/>
      <point x="539.16" y="-6.10352e-05" type="line"/>
    </contour>
  </outline>
</glyph>
<glyph name="Eacute" format="1">
  <advance width="570"/>
  <unicode hex="00C9"/>
  <outline>
    <contour>
      <point x="215.4" y="814.05" type="line"/>
      <point x="231.16" y="754" type="line"/>
      <point x="434.27" y="833.53" type="line"/>
      <point x="412.14" y="908.42" type="line"/>
    </contour>
    <contour>
      <point x="539.16" y="6.10352e-05" type="line"/>
      <point x="539.16" y="64.0001" type="line"/>
      <point x="156" y="64.0001" type="line"/>
      <point x="156" y="321.67" type="line"/>
      <point x="463.75" y="321.67" type="line"/>
      <point x="463.75" y="385.67" type="line"/>
      <point x="156" y="385.67" type="line"/>
      <point x="156" y="636.32" type="line"/>
      <point x="538.46" y="636.32" type="line"/>
      <point x="538.46" y="700" type="line"/>
      <point x="85.9999" y="700" type="line"/>
      <point x="85.9999" y="6.10352e-05" type="line"/>
    </contour>
  </outline>
</glyph>
<glyph name="Ecircumflex" format="1">
  <advance width="570"/>
  <unicode hex="00CA"/>
  <outline>
    <contour>
      <point x="315.13" y="824.86" type="line"/>
      <point x="496.11" y="754" type="line"/>
      <point x="511.87" y="814.05" type="line"/>
      <point x="315.13" y="908.42" type="line"/>
      <point x="118.39" y="814.05" type="line"/>
      <point x="134.15" y="754" type="line"/>
    </contour>
    <contour>
      <point x="539.16" y="0" type="line"/>
      <point x="539.16" y="64" type="line"/>
      <point x="156" y="64" type="line"/>
      <point x="156" y="321.67" type="line"/>
      <point x="463.75" y="321.67" type="line"/>
      <point x="463.75" y="385.67" type="line"/>
      <point x="156" y="385.67" type="line"/>
      <point x="156" y="636.32" type="line"/>
      <point x="538.46" y="636.32" type="line"/>
      <point x="538.46" y="700" type="line"/>
      <point x="86.0001" y="700" type="line"/>
      <point x="86.0001" y="-6.10352e-05" type="line"/>
    </contour>
  </outline>
</glyph>
<glyph name="Edieresis" format="1">
  <advance width="570"/>
  <unicode hex="00CB"/>
  <outline>
    <contour>
      <point x="201.58" y="762.26"/>
      <point x="223.05" y="783.73"/>
      <point x="223.05" y="808.75" type="curve" smooth="yes"/>
      <point x="223.05" y="833.78"/>
      <point x="201.58" y="855.25"/>
      <point x="176.56" y="855.25" type="curve" smooth="yes"/>
      <point x="151.53" y="855.25"/>
      <point x="130.06" y="833.79"/>
      <point x="130.06" y="808.75" type="curve" smooth="yes"/>
      <point x="130.06" y="783.72"/>
      <point x="151.53" y="762.26"/>
      <point x="176.56" y="762.26" type="curve" smooth="yes"/>
    </contour>
    <contour>
      <point x="480.92" y="762.26"/>
      <point x="502.39" y="783.73"/>
      <point x="502.39" y="808.75" type="curve" smooth="yes"/>
      <point x="502.39" y="833.78"/>
      <point x="480.92" y="855.25"/>
      <point x="455.9" y="855.25" type="curve" smooth="yes"/>
      <point x="430.87" y="855.25"/>
      <point x="409.4" y="833.79"/>
      <point x="409.4" y="808.75" type="curve" smooth="yes"/>
      <point x="409.4" y="783.72"/>
      <point x="430.87" y="762.26"/>
      <point x="455.9" y="762.26" type="curve" smooth="yes"/>
    </contour>
    <contour>
      <point x="539.16" y="63.9999" type="line"/>
      <point x="156" y="63.9999" type="line"/>
      <point x="156" y="321.67" type="line"/>
      <point x="463.75" y="321.67" type="line"/>
      <point x="463.75" y="385.67" type="line"/>
      <point x="156" y="385.67" type="line"/>
      <point x="156" y="636.32" type="line"/>
      <point x="538.46" y="636.32" type="line"/>
      <point x="538.46" y="700" type="line"/>
      <point x="85.9999" y="700" type="line"/>
      <point x="85.9999" y="-6.10352e-05" type="line"/>
      <point x="539.16" y="-6.10352e-05" type="line"/>
    </contour>
  </outline>
</glyph>
<glyph name="Igrave" format="1">
  <advance width="242"/>
  <unicode hex="00CC"/>
  <outline>
    <contour>
      <point x="17.5" y="833.53" type="line"/>
      <point x="220.61" y="754" type="line"/>
      <point x="236.37" y="814.05" type="line"/>
      <point x="39.63" y="908.42" type="line"/>
    </contour>
    <contour>
      <point x="156" y="0" type="line"/>
      <point x="156" y="700.07" type="line"/>
      <point x="86" y="700.07" type="line"/>
      <point x="86" y="0" type="line"/>
    </contour>
  </outline>
</glyph>
<glyph name="Idieresis" format="1">
  <advance width="242"/>
  <unicode hex="00CF"/>
  <outline>
    <contour>
      <point x="-64.22" y="833.79"/>
      <point x="-42.75" y="855.25"/>
      <point x="-17.73" y="855.25" type="curve" smooth="yes"/>
      <point x="7.3" y="855.25"/>
      <point x="28.76" y="833.78"/>
      <point x="28.76" y="808.75" type="curve" smooth="yes"/>
      <point x="28.76" y="783.73"/>
      <point x="7.3" y="762.26"/>
      <point x="-17.73" y="762.26" type="curve" smooth="yes"/>
      <point x="-42.75" y="762.26"/>
      <point x="-64.22" y="783.72"/>
      <point x="-64.22" y="808.75" type="curve" smooth="yes"/>
    </contour>
    <contour>
      <point x="215.12" y="833.79"/>
      <point x="236.59" y="855.25"/>
      <point x="261.61" y="855.25" type="curve" smooth="yes"/>
      <point x="286.64" y="855.25"/>
      <point x="308.1" y="833.78"/>
      <point x="308.1" y="808.75" type="curve" smooth="yes"/>
      <point x="308.1" y="783.73"/>
      <point x="286.64" y="762.26"/>
      <point x="261.61" y="762.26" type="curve" smooth="yes"/>
      <point x="236.59" y="762.26"/>
      <point x="215.12" y="783.72"/>
      <point x="215.12" y="808.75" type="curve" smooth="yes"/>
    </contour>
    <contour>
      <point x="156" y="0" type="line"/>
      <point x="156" y="700.07" type="line"/>
      <point x="86" y="700.07" type="line"/>
      <point x="86" y="0" type="line"/>
    </contour>
  </outline>
</glyph>
<glyph name="Ocircumflex" format="1">
  <advance width="774"/>
  <unicode hex="00D4"/>
  <outline>
    <contour>
      <point x="386.85" y="824.86" type="line"/>
      <point x="567.83" y="754" type="line"/>
      <point x="583.59" y="814.05" type="line"/>
      <point x="386.85" y="908.42" type="line"/>
      <point x="190.11" y="814.05" type="line"/>
      <point x="205.87" y="754" type="line"/>
    </contour>
    <contour>
      <point x="189.63" y="702.48"/>
      <point x="36" y="542.3"/>
      <point x="36" y="351.22" type="curve" smooth="yes"/>
      <point x="36" y="157.22"/>
      <point x="193.25" y="-3.05176e-05"/>
      <point x="387.26" y="-3.05176e-05" type="curve" smooth="yes"/>
      <point x="557.12" y="-3.05176e-05"/>
      <point x="738.5" y="129.76"/>
      <point x="738.5" y="351.22" type="curve" smooth="yes"/>
      <point x="738.5" y="545.21"/>
      <point x="581.27" y="702.48"/>
      <point x="387.26" y="702.48" type="curve" smooth="yes"/>
    </contour>
    <contour>
      <point x="540.73" y="638.48"/>
      <point x="668.5" y="510.68"/>
      <point x="668.5" y="351.22" type="curve" smooth="yes"/>
      <point x="668.5" y="170.68"/>
      <point x="523.34" y="64"/>
      <point x="387.26" y="64" type="curve" smooth="yes"/>
      <point x="233.78" y="64"/>
      <point x="106" y="191.77"/>
      <point x="106" y="351.22" type="curve" smooth="yes"/>
      <point x="106" y="508.53"/>
      <point x="231.04" y="638.48"/>
      <point x="387.26" y="638.48" type="curve" smooth="yes"/>
    </contour>
  </outline>
</glyph>
<glyph name="Odieresis" format="1">
  <advance width="774"/>
  <unicode hex="00D6"/>
  <outline>
    <contour>
      <point x="72.43" y="811.52"/>
      <point x="93.9" y="832.98"/>
      <point x="118.92" y="832.98" type="curve" smooth="yes"/>
      <point x="143.95" y="832.98"/>
      <point x="165.41" y="811.52"/>
      <point x="165.41" y="786.49" type="curve" smooth="yes"/>
      <point x="165.41" y="761.46"/>
      <point x="143.95" y="740"/>
      <point x="118.92" y="740" type="curve" smooth="yes"/>
      <point x="93.89" y="740"/>
      <point x="72.43" y="761.46"/>
      <point x="72.43" y="786.49" type="curve" smooth="yes"/>
    </contour>
    <contour>
      <point x="626.16" y="811.52"/>
      <point x="647.63" y="832.98"/>
      <point x="672.65" y="832.98" type="curve" smooth="yes"/>
      <point x="697.68" y="832.98"/>
      <point x="719.14" y="811.52"/>
      <point x="719.14" y="786.49" type="curve" smooth="yes"/>
      <point x="719.14" y="761.46"/>
      <point x="697.68" y="740"/>
      <point x="672.65" y="740" type="curve" smooth="yes"/>
      <point x="647.63" y="740"/>
      <point x="626.16" y="761.46"/>
      <point x="626.16" y="786.49" type="curve" smooth="yes"/>
    </contour>
    <contour>
      <point x="189.63" y="702.48"/>
      <point x="36" y="542.3"/>
      <point x="36" y="351.22" type="curve" smooth="yes"/>
      <point x="36" y="157.22"/>
      <point x="193.25" y="-3.05176e-05"/>
      <point x="387.26" y="-3.05176e-05" type="curve" smooth="yes"/>
      <point x="557.12" y="-3.05176e-05"/>
      <point x="738.5" y="129.76"/>
      <point x="738.5" y="351.22" type="curve" smooth="yes"/>
      <point x="738.5" y="545.21"/>
      <point x="581.27" y="702.48"/>
      <point x="387.26" y="702.48" type="curve" smooth="yes"/>
    </contour>
    <contour>
      <point x="540.73" y="638.48"/>
      <point x="668.5" y="510.68"/>
      <point x="668.5" y="351.22" type="curve" smooth="yes"/>
      <point x="668.5" y="170.68"/>
      <point x="523.34" y="64"/>
      <point x="387.26" y="64" type="curve" smooth="yes"/>
      <point x="233.78" y="64"/>
      <point x="106" y="191.77"/>
      <point x="106" y="351.22" type="curve" smooth="yes"/>
      <point x="106" y="508.53"/>
      <point x="231.04" y="638.48"/>
      <point x="387.26" y="638.48" type="curve" smooth="yes"/>
    </contour>
  </outline>
</glyph>
<glyph name="multiply" format="1">
  <advance width="609"/>
  <unicode hex="00D7"/>
  <outline>
    <contour>
      <point x="544.71" y="-23" type="line"/>
      <point x="594.21" y="22.63" type="line"/>
      <point x="64.75" y="552.09" type="line"/>
      <point x="15.25" y="506.83" type="line"/>
    </contour>
  </outline>
</glyph>
<glyph name="Uacute" format="1">
  <advance width="661"/>
  <unicode hex="00DA"/>
  <outline>
    <contour>
      <point x="231.11" y="814.05" type="line"/>
      <point x="246.88" y="754" type="line"/>
      <point x="449.98" y="833.53" type="line"/>
      <point x="427.85" y="908.42" type="line"/>
    </contour>
    <contour>
      <point x="139" y="699.8" type="line"/>
      <point x="69.06" y="699.8" type="line"/>
      <point x="69.06" y="270.08" type="line"/>
      <point x="69.06" y="270.23"/>
      <point x="58.66" y="0.420044"/>
      <point x="322.55" y="-8.99995" type="curve"/>
      <point x="343.2" y="-8.99995" type="line"/>
      <point x="607.35" y="0.420044"/>
      <point x="596.96" y="270.23"/>
      <point x="596.96" y="270.22" type="curve"/>
      <point x="596.96" y="699.8" type="line"/>
      <point x="526.96" y="699.8" type="line"/>
      <point x="526.96" y="259.53" type="line" smooth="yes"/>
      <point x="525.72" y="219.24"/>
      <point x="510.26" y="61.49"/>
      <point x="341.88" y="54.6" type="curve"/>
      <point x="324.13" y="54.6" type="line"/>
      <point x="147.1" y="61.85"/>
      <point x="139.1" y="235.87"/>
      <point x="139" y="264.78" type="curve"/>
    </contour>
  </outline>
</glyph>
<glyph name="Yacute" format="1">
  <advance width="638"/>
  <unicode hex="00DD"/>
  <outline>
    <contour>
      <point x="219.11" y="814.05" type="line"/>
      <point x="234.88" y="754" type="line"/>
      <point x="437.98" y="833.53" type="line"/>
      <point x="415.85" y="908.42" type="line"/>
    </contour>
    <contour>
      <point x="318.99" y="404.83" type="line"/>
      <point x="89.76" y="700" type="line"/>
      <point x="4" y="700" type="line"/>
      <point x="283.99" y="339.46" type="line"/>
      <point x="283.99" y="0" type="line"/>
      <point x="353.99" y="0" type="line"/>
      <point x="353.99" y="339.46" type="line"/>
      <point x="634.13" y="700" type="line"/>
      <point x="548.34" y="700" type="line"/>
    </contour>
  </outline>
</glyph>
<glyph name="acircumflex" format="1">
  <advance width="516"/>
  <unicode hex="00E2"/>
  <outline>
    <contour>
      <point x="262.85" y="624.86" type="line"/>
      <point x="443.83" y="554" type="line"/>
      <point x="459.59" y="614.05" type="line"/>
      <point x="262.85" y="708.42" type="line"/>
      <point x="66.11" y="614.05" type="line"/>
      <point x="81.87" y="554" type="line"/>
    </contour>
    <contour>
      <point x="132.53" y="393.75" type="line"/>
      <point x="159.04" y="417.13"/>
      <point x="200.93" y="444.88"/>
      <point x="253.62" y="444.88" type="curve" smooth="yes"/>
      <point x="322.01" y="444.88"/>
      <point x="370.65" y="402.86"/>
      <point x="370.65" y="329.08" type="curve" smooth="yes"/>
      <point x="370.65" y="291.83" type="line"/>
      <point x="339.62" y="298.92"/>
      <point x="302.6" y="302.55"/>
      <point x="269.96" y="302.55" type="curve" smooth="yes"/>
      <point x="154.01" y="302.55"/>
      <point x="47" y="266.59"/>
      <point x="47" y="136.82" type="curve" smooth="yes"/>
      <point x="47" y="71.44"/>
      <point x="97.41" y="-6.00005"/>
      <point x="207.53" y="-6.00005" type="curve" smooth="yes"/>
      <point x="274.37" y="-6.00005"/>
      <point x="330.33" y="23.09"/>
      <point x="370.65" y="67.8499" type="curve"/>
      <point x="370.65" y="-6.10352e-05" type="line"/>
      <point x="440.65" y="-6.10352e-05" type="line"/>
      <point x="440.65" y="329.08" type="line" smooth="yes"/>
      <point x="440.65" y="438.69"/>
      <point x="356.87" y="508.88"/>
      <point x="253.62" y="508.88" type="curve" smooth="yes"/>
      <point x="164.54" y="508.88"/>
      <point x="109.14" y="463.52"/>
      <point x="83.65" y="436.46" type="curve"/>
    </contour>
    <contour>
      <point x="317.16" y="245.85"/>
      <point x="347.55" y="241.81"/>
      <point x="370.65" y="237.47" type="curve"/>
      <point x="370.65" y="122.96"/>
      <point x="314.47" y="57.6"/>
      <point x="207.53" y="57.6" type="curve" smooth="yes"/>
      <point x="144.96" y="57.6"/>
      <point x="117" y="96.41"/>
      <point x="117" y="136.82" type="curve" smooth="yes"/>
      <point x="117" y="220.29"/>
      <point x="179.63" y="245.85"/>
      <point x="283.96" y="245.85" type="curve" smooth="yes"/>
    </contour>
  </outline>
</glyph>
<glyph name="ae" format="1">
  <advance width="890"/>
  <unicode hex="00E6"/>
  <outline>
    <contour>
      <point x="838.93" y="246.95" type="line"/>
      <point x="852.66" y="347.83"/>
      <point x="836.42" y="402.07"/>
      <point x="801.17" y="444.14" type="curve" smooth="yes"/>
      <point x="761.69" y="491.25"/>
      <point x="701.97" y="517.67"/>
      <point x="626.17" y="517.67" type="curve" smooth="yes"/>
      <point x="531.15" y="517.67"/>
      <point x="462.62" y="474.72"/>
      <point x="421.29" y="413.34" type="curve"/>
      <point x="390.71" y="473.34"/>
      <point x="327.09" y="508.88"/>
      <point x="253.62" y="508.88" type="curve" smooth="yes"/>
      <point x="164.54" y="508.88"/>
      <point x="109.14" y="463.52"/>
      <point x="83.65" y="436.46" type="curve"/>
      <point x="132.53" y="393.75" type="line"/>
      <point x="159.04" y="417.13"/>
      <point x="200.93" y="444.88"/>
      <point x="253.62" y="444.88" type="curve" smooth="yes"/>
      <point x="322.01" y="444.88"/>
      <point x="370.65" y="402.86"/>
      <point x="370.65" y="329.08" type="curve" smooth="yes"/>
      <point x="370.65" y="291.83" type="line"/>
      <point x="339.62" y="298.92"/>
      <point x="302.6" y="302.55"/>
      <point x="269.96" y="302.55" type="curve" smooth="yes"/>
      <point x="154.01" y="302.55"/>
      <point x="47" y="266.59"/>
      <point x="47" y="136.82" type="curve" smooth="yes"/>
      <point x="47" y="71.4399"/>
      <point x="97.41" y="-6.00011"/>
      <point x="207.53" y="-6.00011" type="curve" smooth="yes"/>
      <point x="274.37" y="-6.00011"/>
      <point x="337.11" y="14.3999"/>
      <point x="379.81" y="62.0699" type="curve" smooth="yes"/>
      <point x="393.64" y="77.5099"/>
      <point x="404.15" y="93.2999"/>
      <point x="412.13" y="108.61" type="curve"/>
      <point x="452.06" y="39.7099"/>
      <point x="523.79" y="-10.0001"/>
      <point x="627.54" y="-10.0001" type="curve" smooth="yes"/>
      <point x="728.11" y="-10.0001"/>
      <point x="802.11" y="41.6099"/>
      <point x="842.42" y="107.02" type="curve"/>
      <point x="784.85" y="153.84" type="line"/>
      <point x="753.54" y="91.9399"/>
      <point x="699.11" y="53.9999"/>
      <point x="627.54" y="53.9999" type="curve" smooth="yes"/>
      <point x="509.14" y="53.9999"/>
      <point x="447.17" y="142.96"/>
      <point x="444.55" y="246.95" type="curve"/>
    </contour>
    <contour>
      <point x="450.16" y="307.95" type="line"/>
      <point x="468.08" y="390.17"/>
      <point x="528.08" y="453.67"/>
      <point x="626.17" y="453.67" type="curve" smooth="yes"/>
      <point x="720.19" y="453.67"/>
      <point x="785.8" y="394.55"/>
      <point x="775.89" y="307.95" type="curve"/>
    </contour>
    <contour>
      <point x="144.96" y="57.5999"/>
      <point x="117" y="96.4099"/>
      <point x="117" y="136.82" type="curve" smooth="yes"/>
      <point x="117" y="220.29"/>
      <point x="179.63" y="245.85"/>
      <point x="283.96" y="245.85" type="curve" smooth="yes"/>
      <point x="317.16" y="245.85"/>
      <point x="347.55" y="241.81"/>
      <point x="370.65" y="237.47" type="curve"/>
      <point x="370.65" y="122.96"/>
      <point x="314.47" y="57.5999"/>
      <point x="207.53" y="57.5999" type="curve" smooth="yes"/>
    </contour>
  </outline>
</glyph>
<glyph name="egrave" format="1">
  <advance width="553"/>
  <unicode hex="00E8"/>
  <outline>
    <contour>
      <point x="173.5" y="633.53" type="line"/>
      <point x="376.61" y="554" type="line"/>
      <point x="392.37" y="614.05" type="line"/>
      <point x="195.63" y="708.42" type="line"/>
    </contour>
    <contour>
      <point x="448.38" y="153.84" type="line"/>
      <point x="417.07" y="91.94"/>
      <point x="362.64" y="54"/>
      <point x="291.07" y="54" type="curve" smooth="yes"/>
      <point x="172.68" y="54"/>
      <point x="110.7" y="142.96"/>
      <point x="108.09" y="246.95" type="curve"/>
      <point x="502.46" y="246.95" type="line"/>
      <point x="516.19" y="347.83"/>
      <point x="499.95" y="402.07"/>
      <point x="464.7" y="444.14" type="curve" smooth="yes"/>
      <point x="425.22" y="491.25"/>
      <point x="365.5" y="517.67"/>
      <point x="289.7" y="517.67" type="curve" smooth="yes"/>
      <point x="123.17" y="517.67"/>
      <point x="38" y="385.75"/>
      <point x="38" y="253.84" type="curve" smooth="yes"/>
      <point x="38" y="121.92"/>
      <point x="122.06" y="-10"/>
      <point x="291.07" y="-10" type="curve" smooth="yes"/>
      <point x="391.64" y="-10"/>
      <point x="465.64" y="41.61"/>
      <point x="505.95" y="107.02" type="curve"/>
    </contour>
    <contour>
      <point x="113.69" y="307.95" type="line"/>
      <point x="131.62" y="390.17"/>
      <point x="191.61" y="453.67"/>
      <point x="289.7" y="453.67" type="curve" smooth="yes"/>
      <point x="383.72" y="453.67"/>
      <point x="449.33" y="394.55"/>
      <point x="439.42" y="307.95" type="curve"/>
    </contour>
  </outline>
</glyph>
<glyph name="edieresis" format="1">
  <advance width="553"/>
  <unicode hex="00EB"/>
  <outline>
    <contour>
      <point x="91.78" y="633.79"/>
      <point x="113.25" y="655.25"/>
      <point x="138.27" y="655.25" type="curve" smooth="yes"/>
      <point x="163.3" y="655.25"/>
      <point x="184.76" y="633.78"/>
      <point x="184.76" y="608.75" type="curve" smooth="yes"/>
      <point x="184.76" y="583.73"/>
      <point x="163.3" y="562.26"/>
      <point x="138.27" y="562.26" type="curve" smooth="yes"/>
      <point x="113.25" y="562.26"/>
      <point x="91.78" y="583.72"/>
      <point x="91.78" y="608.75" type="curve" smooth="yes"/>
    </contour>
    <contour>
      <point x="371.12" y="633.79"/>
      <point x="392.59" y="655.25"/>
      <point x="417.61" y="655.25" type="curve" smooth="yes"/>
      <point x="442.64" y="655.25"/>
      <point x="464.1" y="633.78"/>
      <point x="464.1" y="608.75" type="curve" smooth="yes"/>
      <point x="464.1" y="583.73"/>
      <point x="442.64" y="562.26"/>
      <point x="417.61" y="562.26" type="curve" smooth="yes"/>
      <point x="392.59" y="562.26"/>
      <point x="371.12" y="583.72"/>
      <point x="371.12" y="608.75" type="curve" smooth="yes"/>
    </contour>
    <contour>
      <point x="448.38" y="153.84" type="line"/>
      <point x="417.07" y="91.94"/>
      <point x="362.64" y="54"/>
      <point x="291.07" y="54" type="curve" smooth="yes"/>
      <point x="172.68" y="54"/>
      <point x="110.7" y="142.96"/>
      <point x="108.09" y="246.95" type="curve"/>
      <point x="502.46" y="246.95" type="line"/>
      <point x="516.19" y="347.83"/>
      <point x="499.95" y="402.07"/>
      <point x="464.7" y="444.14" type="curve" smooth="yes"/>
      <point x="425.22" y="491.25"/>
      <point x="365.5" y="517.67"/>
      <point x="289.7" y="517.67" type="curve" smooth="yes"/>
      <point x="123.17" y="517.67"/>
      <point x="38" y="385.75"/>
      <point x="38" y="253.84" type="curve" smooth="yes"/>
      <point x="38" y="121.92"/>
      <point x="122.06" y="-10"/>
      <point x="291.07" y="-10" type="curve" smooth="yes"/>
      <point x="391.64" y="-10"/>
      <point x="465.64" y="41.61"/>
      <point x="505.95" y="107.02" type="curve"/>
    </contour>
    <contour>
      <point x="113.69" y="307.95" type="line"/>
      <point x="131.62" y="390.17"/>
      <point x="191.61" y="453.67"/>
      <point x="289.7" y="453.67" type="curve" smooth="yes"/>
      <point x="383.72" y="453.67"/>
      <point x="449.33" y="394.55"/>
      <point x="439.42" y="307.95" type="curve"/>
    </contour>
  </outline>
</glyph>
<glyph name="idieresis" format="1">
  <advance width="176"/>
  <unicode hex="00EF"/>
  <outline>
    <contour>
      <point x="-36" y="628.69"/>
      <point x="-14" y="650.15"/>
      <point x="10.75" y="650.15" type="curve" smooth="yes"/>
      <point x="35.78" y="650.15"/>
      <point x="57.24" y="628.68"/>
      <point x="57.24" y="603.65" type="curve" smooth="yes"/>
      <point x="57.24" y="578.63"/>
      <point x="35.78" y="557.16"/>
      <point x="10.75" y="557.16" type="curve" smooth="yes"/>
      <point x="-14" y="557.16"/>
      <point x="-36" y="578.62"/>
      <point x="-36" y="603.65" type="curve" smooth="yes"/>
    </contour>
    <contour>
      <point x="119.45" y="627.21"/>
      <point x="140.45" y="648.67"/>
      <point x="165.45" y="648.67" type="curve" smooth="yes"/>
      <point x="190.45" y="648.67"/>
      <point x="212.45" y="627.2"/>
      <point x="212.45" y="602.17" type="curve" smooth="yes"/>
      <point x="212.45" y="577.15"/>
      <point x="190.45" y="555.68"/>
      <point x="165.45" y="555.68" type="curve" smooth="yes"/>
      <point x="140.45" y="555.68"/>
      <point x="119.45" y="577.14"/>
      <point x="119.45" y="602.17" type="curve" smooth="yes"/>
    </contour>
    <contour>
      <point x="120.06" y="6.10352e-05" type="line"/>
      <point x="120.06" y="502.34" type="line"/>
      <point x="56.06" y="502.34" type="line"/>
      <point x="56.06" y="6.10352e-05" type="line"/>
    </contour>
  </outline>
</glyph>
<glyph name="eth" format="1">
  <advance width="600"/>
  <unicode hex="00F0"/>
  <outline>
    <contour>
      <point x="395.06" y="744.29" type="line"/>
      <point x="342.15" y="786.2" type="line"/>
      <point x="263.58" y="695.51" type="line"/>
      <point x="212.79" y="722.88"/>
      <point x="154.5" y="738.13"/>
      <point x="89.61" y="738.13" type="curve"/>
      <point x="89.61" y="674.13" type="line"/>
      <point x="136.93" y="674.13"/>
      <point x="180.37" y="663.59"/>
      <point x="219.17" y="644.26" type="curve"/>
      <point x="178.69" y="597.53" type="line"/>
      <point x="231.6" y="555.62" type="line"/>
      <point x="276.12" y="607.01" type="line"/>
      <point x="325.62" y="565.92"/>
      <point x="364.32" y="507.93"/>
      <point x="389.83" y="438.6" type="curve"/>
      <point x="361.29" y="457.01"/>
      <point x="328.56" y="467.47"/>
      <point x="293.77" y="467.47" type="curve" smooth="yes"/>
      <point x="239.48" y="467.47"/>
      <point x="190.21" y="441.99"/>
      <point x="154.02" y="400.58" type="curve" smooth="yes"/>
      <point x="116.16" y="357.26"/>
      <point x="92.6201" y="296.49"/>
      <point x="92.6201" y="229.22" type="curve" smooth="yes"/>
      <point x="92.6201" y="97.64"/>
      <point x="182.68" y="-8.99995"/>
      <point x="293.77" y="-8.99995" type="curve" smooth="yes"/>
      <point x="350.4" y="-8.99995"/>
      <point x="401.56" y="18.68"/>
      <point x="438.12" y="63.29" type="curve" smooth="yes"/>
      <point x="473.28" y="106.19"/>
      <point x="494.92" y="164.71"/>
      <point x="494.92" y="229.22" type="curve" smooth="yes"/>
      <point x="494.92" y="407.37"/>
      <point x="432.03" y="566.59"/>
      <point x="320.06" y="657.72" type="curve"/>
    </contour>
    <contour>
      <point x="356.51" y="70.34"/>
      <point x="327.35" y="55"/>
      <point x="293.77" y="55" type="curve" smooth="yes"/>
      <point x="226.52" y="55"/>
      <point x="162.61" y="129.04"/>
      <point x="162.61" y="229.22" type="curve" smooth="yes"/>
      <point x="162.61" y="281.58"/>
      <point x="180.84" y="328.85"/>
      <point x="206.73" y="358.47" type="curve" smooth="yes"/>
      <point x="233.74" y="389.38"/>
      <point x="261.79" y="403.47"/>
      <point x="293.77" y="403.47" type="curve" smooth="yes"/>
      <point x="361.02" y="403.47"/>
      <point x="424.92" y="329.4"/>
      <point x="424.92" y="229.22" type="curve" smooth="yes"/>
      <point x="424.92" y="177.23"/>
      <point x="409.21" y="134.64"/>
      <point x="383.98" y="103.86" type="curve" smooth="yes"/>
    </contour>
  </outline>
</glyph>
<glyph name="ntilde" format="1">
  <advance width="561"/>
  <unicode hex="00F1"/>
  <outline>
    <contour>
      <point x="381.67" y="673.08" type="line"/>
      <point x="387.28" y="653.19"/>
      <point x="391.63" y="630.25"/>
      <point x="367.98" y="630.25" type="curve" smooth="yes"/>
      <point x="325.47" y="630.25"/>
      <point x="269.92" y="690.05"/>
      <point x="206.81" y="684.6" type="curve" smooth="yes"/>
      <point x="162.67" y="680.79"/>
      <point x="128.19" y="644.66"/>
      <point x="113.92" y="598.09" type="curve"/>
      <point x="167.22" y="575.19" type="line"/>
      <point x="175.61" y="602.55"/>
      <point x="185.99" y="624.77"/>
      <point x="210.34" y="626.88" type="curve" smooth="yes"/>
      <point x="259.16" y="631.08"/>
      <point x="312.26" y="566.61"/>
      <point x="373.38" y="566.61" type="curve" smooth="yes"/>
      <point x="416.66" y="566.61"/>
      <point x="458.38" y="592.88"/>
      <point x="446.17" y="673.08" type="curve"/>
    </contour>
    <contour>
      <point x="146" y="507.33" type="line"/>
      <point x="76" y="507.33" type="line"/>
      <point x="76" y="-0.00012207" type="line"/>
      <point x="146" y="-0.00012207" type="line"/>
      <point x="146" y="325.35" type="line"/>
      <point x="155.51" y="383.22"/>
      <point x="206.57" y="449.77"/>
      <point x="286.93" y="449.77" type="curve" smooth="yes"/>
      <point x="373.82" y="449.77"/>
      <point x="431.65" y="391.28"/>
      <point x="431.65" y="280.98" type="curve" smooth="yes"/>
      <point x="431.65" y="-6.10352e-05" type="line"/>
      <point x="501.65" y="-6.10352e-05" type="line"/>
      <point x="501.65" y="280.98" type="line" smooth="yes"/>
      <point x="501.65" y="423.64"/>
      <point x="412.62" y="513.37"/>
      <point x="286.93" y="513.37" type="curve" smooth="yes"/>
      <point x="230.91" y="513.37"/>
      <point x="182.03" y="487.26"/>
      <point x="146" y="444.27" type="curve"/>
    </contour>
  </outline>
</glyph>
<glyph name="ocircumflex" format="1">
  <advance width="591"/>
  <unicode hex="00F4"/>
  <outline>
    <contour>
      <point x="296.43" y="623.41" type="line"/>
      <point x="477.41" y="552.54" type="line"/>
      <point x="493.17" y="612.59" type="line"/>
      <point x="296.43" y="706.96" type="line"/>
      <point x="99.69" y="612.59" type="line"/>
      <point x="115.45" y="552.54" type="line"/>
    </contour>
    <contour>
      <point x="552.96" y="401.92"/>
      <point x="437.46" y="517.84"/>
      <point x="294.98" y="517.84" type="curve" smooth="yes"/>
      <point x="153.64" y="517.84"/>
      <point x="37" y="402.48"/>
      <point x="37" y="258.92" type="curve" smooth="yes"/>
      <point x="37" y="115.93"/>
      <point x="152.5" y="4.57764e-05"/>
      <point x="294.98" y="4.57764e-05" type="curve" smooth="yes"/>
      <point x="438.22" y="4.57764e-05"/>
      <point x="552.96" y="117.29"/>
      <point x="552.96" y="258.92" type="curve" smooth="yes"/>
    </contour>
    <contour>
      <point x="482.96" y="151.34"/>
      <point x="397.32" y="64"/>
      <point x="294.98" y="64" type="curve" smooth="yes"/>
      <point x="193.01" y="64"/>
      <point x="107" y="150.31"/>
      <point x="107" y="258.92" type="curve" smooth="yes"/>
      <point x="107" y="367.82"/>
      <point x="193.84" y="453.85"/>
      <point x="294.98" y="453.85" type="curve" smooth="yes"/>
      <point x="396.95" y="453.85"/>
      <point x="482.96" y="367.54"/>
      <point x="482.96" y="258.92" type="curve" smooth="yes"/>
    </contour>
  </outline>
</glyph>
<glyph name="otilde" format="1">
  <advance width="591"/>
  <unicode hex="00F5"/>
  <outline>
    <contour>
      <point x="398.26" y="671.62" type="line"/>
      <point x="403.86" y="651.73"/>
      <point x="408.22" y="628.79"/>
      <point x="384.57" y="628.79" type="curve" smooth="yes"/>
      <point x="342.06" y="628.79"/>
      <point x="286.51" y="688.59"/>
      <point x="223.4" y="683.14" type="curve" smooth="yes"/>
      <point x="179.26" y="679.33"/>
      <point x="144.78" y="643.2"/>
      <point x="130.51" y="596.63" type="curve"/>
      <point x="183.81" y="573.73" type="line"/>
      <point x="192.2" y="601.09"/>
      <point x="202.58" y="623.31"/>
      <point x="226.93" y="625.42" type="curve" smooth="yes"/>
      <point x="275.75" y="629.62"/>
      <point x="328.84" y="565.15"/>
      <point x="389.97" y="565.15" type="curve" smooth="yes"/>
      <point x="433.24" y="565.15"/>
      <point x="474.97" y="591.42"/>
      <point x="462.76" y="671.62" type="curve"/>
    </contour>
    <contour>
      <point x="552.96" y="401.92"/>
      <point x="437.46" y="517.84"/>
      <point x="294.98" y="517.84" type="curve" smooth="yes"/>
      <point x="153.64" y="517.84"/>
      <point x="37.0001" y="402.48"/>
      <point x="37.0001" y="258.92" type="curve" smooth="yes"/>
      <point x="37.0001" y="115.93"/>
      <point x="152.5" y="-7.62939e-05"/>
      <point x="294.98" y="-7.62939e-05" type="curve" smooth="yes"/>
      <point x="438.22" y="-7.62939e-05"/>
      <point x="552.96" y="117.29"/>
      <point x="552.96" y="258.92" type="curve" smooth="yes"/>
    </contour>
    <contour>
      <point x="482.96" y="151.34"/>
      <point x="397.32" y="63.9999"/>
      <point x="294.98" y="63.9999" type="curve" smooth="yes"/>
      <point x="193.01" y="63.9999"/>
      <point x="107" y="150.31"/>
      <point x="107" y="258.92" type="curve" smooth="yes"/>
      <point x="107" y="367.82"/>
      <point x="193.84" y="453.85"/>
      <point x="294.98" y="453.85" type="curve" smooth="yes"/>
      <point x="396.95" y="453.85"/>
      <point x="482.96" y="367.54"/>
      <point x="482.96" y="258.92" type="curve" smooth="yes"/>
    </contour>
  </outline>
</glyph>
<glyph name="oslash" format="1">
  <advance width="591"/>
  <unicode hex="00F8"/>
  <outline>
    <contour>
      <point x="453.62" y="623.64" type="line"/>
      <point x="394.15" y="640.05" type="line"/>
      <point x="351.81" y="511.54" type="line"/>
      <point x="333.53" y="515.66"/>
      <point x="314.51" y="517.84"/>
      <point x="294.98" y="517.84" type="curve" smooth="yes"/>
      <point x="153.64" y="517.84"/>
      <point x="37" y="402.48"/>
      <point x="37" y="258.92" type="curve" smooth="yes"/>
      <point x="37" y="153.23"/>
      <point x="100.11" y="62.32"/>
      <point x="190.57" y="22.08" type="curve"/>
      <point x="147.38" y="-109.02" type="line"/>
      <point x="206.85" y="-125" type="line"/>
      <point x="249.38" y="4.03003" type="line"/>
      <point x="264.18" y="1.38004"/>
      <point x="279.42" y="3.05176e-05"/>
      <point x="294.98" y="3.05176e-05" type="curve" smooth="yes"/>
      <point x="438.22" y="3.05176e-05"/>
      <point x="552.96" y="117.29"/>
      <point x="552.96" y="258.92" type="curve" smooth="yes"/>
      <point x="552.96" y="360.5"/>
      <point x="494.68" y="448.42"/>
      <point x="409.84" y="490.83" type="curve"/>
    </contour>
    <contour>
      <point x="211.18" y="84.64" type="line"/>
      <point x="149.97" y="116.52"/>
      <point x="107" y="182.15"/>
      <point x="107" y="258.92" type="curve" smooth="yes"/>
      <point x="107" y="367.82"/>
      <point x="193.84" y="453.85"/>
      <point x="294.98" y="453.85" type="curve" smooth="yes"/>
      <point x="307.46" y="453.85"/>
      <point x="319.7" y="452.56"/>
      <point x="331.57" y="450.09" type="curve"/>
    </contour>
    <contour>
      <point x="388.96" y="427.49" type="line"/>
      <point x="444.7" y="393.88"/>
      <point x="482.96" y="331.36"/>
      <point x="482.96" y="258.92" type="curve" smooth="yes"/>
      <point x="482.96" y="151.34"/>
      <point x="397.32" y="64"/>
      <point x="294.98" y="64" type="curve" smooth="yes"/>
      <point x="286.44" y="64"/>
      <point x="278.01" y="64.61"/>
      <point x="269.74" y="65.78" type="curve"/>
    </contour>
  </outline>
</glyph>
<glyph name="dotlessi" format="1">
  <advance width="176"/>
  <unicode hex="0131"/>
  <outline>
    <contour>
      <point x="120.06" y="502.34" type="line"/>
      <point x="56.06" y="502.34" type="line"/>
      <point x="56.06" y="0" type="line"/>
      <point x="120.06" y="0" type="line"/>
    </contour>
  </outline>
</glyph>
<glyph name="Lslash" format="1">
  <advance width="456"/>
  <unicode hex="0141"/>
  <outline>
    <contour>
      <point x="441.08" y="64" type="line"/>
      <point x="187" y="64" type="line"/>
      <point x="187" y="373.33" type="line"/>
      <point x="344.07" y="442.4" type="line"/>
      <point x="344.07" y="512.73" type="line"/>
      <point x="187" y="443.29" type="line"/>
      <point x="187" y="700.07" type="line"/>
      <point x="117" y="700.07" type="line"/>
      <point x="117" y="412.53" type="line"/>
      <point x="18.73" y="369.35" type="line"/>
      <point x="18.73" y="299.02" type="line"/>
      <point x="117" y="342.55" type="line"/>
      <point x="117" y="9.15527e-05" type="line"/>
      <point x="441.08" y="9.15527e-05" type="line"/>
    </contour>
  </outline>
</glyph>
<glyph name="OE" format="1">
  <advance width="1065"/>
  <unicode hex="0152"/>
  <outline>
    <contour>
      <point x="1034.09" y="64" type="line"/>
      <point x="650.93" y="64" type="line"/>
      <point x="650.93" y="321.67" type="line"/>
      <point x="958.68" y="321.67" type="line"/>
      <point x="958.68" y="385.67" type="line"/>
      <point x="650.93" y="385.67" type="line"/>
      <point x="650.93" y="636.32" type="line"/>
      <point x="1033.4" y="636.32" type="line"/>
      <point x="1033.4" y="700" type="line"/>
      <point x="580.93" y="700" type="line"/>
      <point x="580.93" y="644.32" type="line"/>
      <point x="525.41" y="681.07"/>
      <point x="458.84" y="702.48"/>
      <point x="387.26" y="702.48" type="curve" smooth="yes"/>
      <point x="189.63" y="702.48"/>
      <point x="35.9999" y="542.3"/>
      <point x="35.9999" y="351.22" type="curve" smooth="yes"/>
      <point x="35.9999" y="157.22"/>
      <point x="193.25" y="-3.05176e-05"/>
      <point x="387.26" y="-3.05176e-05" type="curve" smooth="yes"/>
      <point x="453.93" y="-3.05176e-05"/>
      <point x="522.38" y="19.99"/>
      <point x="580.93" y="57.67" type="curve"/>
      <point x="580.93" y="-3.05176e-05" type="line"/>
      <point x="1034.09" y="-3.05176e-05" type="line"/>
    </contour>
    <contour>
      <point x="580.93" y="141.79" type="line"/>
      <point x="527.39" y="91.35"/>
      <point x="456.16" y="64"/>
      <point x="387.26" y="64" type="curve" smooth="yes"/>
      <point x="233.78" y="64"/>
      <point x="106" y="191.77"/>
      <point x="106" y="351.22" type="curve" smooth="yes"/>
      <point x="106" y="508.53"/>
      <point x="231.04" y="638.48"/>
      <point x="387.26" y="638.48" type="curve" smooth="yes"/>
      <point x="461.77" y="638.48"/>
      <point x="530.22" y="608.36"/>
      <point x="580.93" y="559.12" type="curve"/>
    </contour>
  </outline>
</glyph>
<glyph name="Scaron" format="1">
  <advance width="491"/>
  <unicode hex="0160"/>
  <outline>
    <contour>
      <point x="242.81" y="745.49" type="line"/>
      <point x="439.55" y="839.86" type="line"/>
      <point x="423.79" y="899.91" type="line"/>
      <point x="242.81" y="829.03" type="line"/>
      <point x="61.83" y="899.91" type="line"/>
      <point x="46.07" y="839.86" type="line"/>
    </contour>
    <contour>
      <point x="425.23" y="625.16" type="line"/>
      <point x="398.07" y="651.91"/>
      <point x="341.25" y="702.39"/>
      <point x="242.67" y="702.39" type="curve" smooth="yes"/>
      <point x="145.05" y="702.39"/>
      <point x="56.58" y="630.05"/>
      <point x="56.58" y="528.82" type="curve" smooth="yes"/>
      <point x="56.58" y="420.87"/>
      <point x="150.97" y="378.35"/>
      <point x="230.12" y="345.85" type="curve" smooth="yes"/>
      <point x="316.97" y="310.17"/>
      <point x="395.69" y="288.26"/>
      <point x="395.71" y="184.3" type="curve" smooth="yes"/>
      <point x="395.73" y="101.09"/>
      <point x="327.91" y="62.1999"/>
      <point x="235.83" y="62.1999" type="curve" smooth="yes"/>
      <point x="160.99" y="62.1999"/>
      <point x="107.65" y="97.1899"/>
      <point x="74.1" y="134.58" type="curve"/>
      <point x="22" y="91.8399" type="line"/>
      <point x="60.59" y="48.8399"/>
      <point x="136.13" y="-2.00009"/>
      <point x="235.83" y="-2.00009" type="curve" smooth="yes"/>
      <point x="352.64" y="-2.00009"/>
      <point x="465.7" y="58.4599"/>
      <point x="465.71" y="184.3" type="curve"/>
      <point x="465.69" y="326.63"/>
      <point x="366.52" y="359.94"/>
      <point x="256.71" y="405.05" type="curve" smooth="yes"/>
      <point x="177.8" y="437.46"/>
      <point x="126.58" y="464.74"/>
      <point x="126.58" y="528.82" type="curve"/>
      <point x="126.57" y="593.79"/>
      <point x="179.4" y="638.39"/>
      <point x="242.67" y="638.39" type="curve" smooth="yes"/>
      <point x="312.94" y="638.39"/>
      <point x="348.04" y="607.2"/>
      <point x="376.12" y="579.55" type="curve"/>
    </contour>
  </outline>
</glyph>
<glyph name="caron" format="1">
  <advance width="600"/>
  <unicode hex="02C7"/>
  <outline>
    <contour>
      <point x="282.81" y="554" type="line"/>
      <point x="479.55" y="648.37" type="line"/>
      <point x="463.79" y="708.42" type="line"/>
      <point x="282.81" y="637.55" type="line"/>
      <point x="101.83" y="708.42" type="line"/>
      <point x="86.07" y="648.37" type="line"/>
    </contour>
  </outline>
</glyph>
<glyph name="ring" format="1">
  <advance width="600"/>
  <unicode hex="02DA"/>
  <outline>
    <contour>
      <point x="444.28" y="697.52"/>
      <point x="379.94" y="761.86"/>
      <point x="299.85" y="761.86" type="curve" smooth="yes"/>
      <point x="219.76" y="761.86"/>
      <point x="155.42" y="697.52"/>
      <point x="155.42" y="617.43" type="curve" smooth="yes"/>
      <point x="155.42" y="537.34"/>
      <point x="219.76" y="473"/>
      <point x="299.85" y="473" type="curve" smooth="yes"/>
      <point x="379.94" y="473"/>
      <point x="444.28" y="537.34"/>
      <point x="444.28" y="617.43" type="curve" smooth="yes"/>
    </contour>
    <contour>
      <point x="390.28" y="567.76"/>
      <point x="349.52" y="527"/>
      <point x="299.85" y="527" type="curve" smooth="yes"/>
      <point x="250.17" y="527"/>
      <point x="209.42" y="567.76"/>
      <point x="209.42" y="617.43" type="curve" smooth="yes"/>
      <point x="209.42" y="667.11"/>
      <point x="250.17" y="707.86"/>
      <point x="299.85" y="707.86" type="curve" smooth="yes"/>
      <point x="349.52" y="707.86"/>
      <point x="390.28" y="667.11"/>
      <point x="390.28" y="617.43" type="curve" smooth="yes"/>
    </contour>
  </outline>
</glyph>
<glyph name="Omega" format="1">
  <advance width="835"/>
  <unicode hex="03A9"/>
  <outline>
    <contour>
      <point x="805.3" y="0" type="line"/>
      <point x="805.3" y="64" type="line"/>
      <point x="662.49" y="64" type="line"/>
      <point x="721.91" y="129.38"/>
      <point x="763.15" y="225.01"/>
      <point x="763.15" y="320.3" type="curve" smooth="yes"/>
      <point x="763.15" y="528.46"/>
      <point x="608.45" y="697.21"/>
      <point x="417.65" y="697.21" type="curve" smooth="yes"/>
      <point x="226.83" y="697.21"/>
      <point x="72.16" y="528.46"/>
      <point x="72.16" y="320.3" type="curve" smooth="yes"/>
      <point x="72.16" y="224.69"/>
      <point x="113.53" y="129.49"/>
      <point x="173.29" y="64" type="curve"/>
      <point x="30" y="64" type="line"/>
      <point x="30" y="-4.57764e-05" type="line"/>
      <point x="255.35" y="-4.57764e-05" type="line"/>
      <point x="286.9" y="57.13" type="line"/>
      <point x="211.37" y="95.27"/>
      <point x="142.16" y="207.7"/>
      <point x="142.16" y="320.3" type="curve" smooth="yes"/>
      <point x="142.16" y="495.48"/>
      <point x="269.19" y="633.21"/>
      <point x="417.65" y="633.21" type="curve" smooth="yes"/>
      <point x="566.11" y="633.21"/>
      <point x="693.15" y="495.48"/>
      <point x="693.15" y="320.3" type="curve" smooth="yes"/>
      <point x="693.15" y="207.59"/>
      <point x="623.74" y="94.11"/>
      <point x="549.09" y="57.45" type="curve"/>
      <point x="579.94" y="-1.52588e-05" type="line"/>
    </contour>
  </outline>
</glyph>
<glyph name="mu" format="1">
  <advance width="600"/>
  <unicode hex="03BC"/>
  <outline>
    <contour>
      <point x="468.66" y="474.63" type="line"/>
      <point x="398.66" y="474.63" type="line"/>
      <point x="398.66" y="178.03" type="line" smooth="yes"/>
      <point x="398.66" y="111.82"/>
      <point x="365.43" y="62"/>
      <point x="291.8" y="62" type="curve" smooth="yes"/>
      <point x="184.56" y="62"/>
      <point x="165.67" y="139.99"/>
      <point x="165.67" y="220.69" type="curve" smooth="yes"/>
      <point x="165.67" y="474.63" type="line"/>
      <point x="95.67" y="474.63" type="line"/>
      <point x="95.67" y="-238" type="line"/>
      <point x="165.67" y="-238" type="line"/>
      <point x="165.67" y="35.58" type="line"/>
      <point x="194.72" y="12.67"/>
      <point x="235.33" y="-1.99998"/>
      <point x="291.8" y="-1.99998" type="curve" smooth="yes"/>
      <point x="354.72" y="-1.99998"/>
      <point x="399.64" y="21.62"/>
      <point x="428.46" y="56.82" type="curve"/>
      <point x="449.84" y="26.01"/>
      <point x="485.89" y="1.00002"/>
      <point x="546.03" y="1.00002" type="curve"/>
      <point x="546.03" y="65" type="line"/>
      <point x="479.8" y="65"/>
      <point x="468.66" y="126.49"/>
      <point x="468.66" y="157.22" type="curve" smooth="yes"/>
    </contour>
  </outline>
</glyph>
<glyph name="pi" format="1">
  <advance width="600"/>
  <unicode hex="03C0"/>
  <outline>
    <contour>
      <point x="471.26" y="408.06" type="line"/>
      <point x="584.16" y="408.06" type="line"/>
      <point x="584.16" y="472.06" type="line"/>
      <point x="16.03" y="472.06" type="line"/>
      <point x="16.03" y="408.06" type="line"/>
      <point x="107.63" y="408.06" type="line"/>
      <point x="107.63" y="0" type="line"/>
      <point x="177.63" y="0" type="line"/>
      <point x="177.63" y="408.06" type="line"/>
      <point x="401.26" y="408.06" type="line"/>
      <point x="401.26" y="156.56" type="line" smooth="yes"/>
      <point x="401.26" y="116.5"/>
      <point x="419.03" y="0.339996"/>
      <point x="548.63" y="0.339996" type="curve"/>
      <point x="548.63" y="64.34" type="line"/>
      <point x="482.41" y="64.34"/>
      <point x="471.26" y="125.83"/>
      <point x="471.26" y="156.56" type="curve" smooth="yes"/>
    </contour>
  </outline>
</glyph>
<glyph name="emdash" format="1">
  <advance width="906"/>
  <unicode hex="2014"/>
  <outline>
    <contour>
      <point x="891.11" y="282.93" type="line"/>
      <point x="891.11" y="346.93" type="line"/>
      <point x="14" y="346.93" type="line"/>
      <point x="14" y="282.93" type="line"/>
    </contour>
  </outline>
</glyph>
<glyph name="quotesinglbase" format="1">
  <advance width="311"/>
  <unicode hex="201A"/>
  <outline>
    <contour>
      <point x="110.35" y="6.89999" type="line"/>
      <point x="58.17" y="-98" type="line"/>
      <point x="120.81" y="-126" type="line"/>
      <point x="181.35" y="-7" type="line"/>
      <point x="181.35" y="90.61" type="line"/>
      <point x="110.35" y="90.61" type="line"/>
    </contour>
  </outline>
</glyph>
<glyph name="quotedblright" format="1">
  <advance width="342"/>
  <unicode hex="201D"/>
  <outline>
    <contour>
      <point x="5.11" y="640.23" type="line"/>
      <point x="1.23" y="719.94" type="line"/>
      <point x="67.7" y="719.94" type="line"/>
      <point x="67.7" y="636.21" type="line"/>
      <point x="28.27" y="541.39" type="line"/>
      <point x="-21.37" y="568.17" type="line"/>
    </contour>
    <contour>
      <point x="157.66" y="640.23" type="line"/>
      <point x="153.78" y="719.94" type="line"/>
      <point x="220.25" y="719.94" type="line"/>
      <point x="220.25" y="636.21" type="line"/>
      <point x="180.82" y="541.39" type="line"/>
      <point x="131.18" y="568.17" type="line"/>
    </contour>
  </outline>
</glyph>
<glyph name="dagger" format="1">
  <advance width="600"/>
  <unicode hex="2020"/>
  <outline>
    <contour>
      <point x="463.7" y="468" type="line"/>
      <point x="463.7" y="532" type="line"/>
      <point x="311.9" y="532" type="line"/>
      <point x="311.9" y="739.09" type="line"/>
      <point x="241.9" y="739.09" type="line"/>
      <point x="241.9" y="532" type="line"/>
      <point x="90.09" y="532" type="line"/>
      <point x="90.09" y="468" type="line"/>
      <point x="241.9" y="468" type="line"/>
      <point x="241.9" y="-139" type="line"/>
      <point x="311.9" y="-139" type="line"/>
      <point x="311.9" y="468" type="line"/>
    </contour>
  </outline>
</glyph>
<glyph name="bullet" format="1">
  <advance width="600"/>
  <unicode hex="2022"/>
  <outline>
    <contour>
      <point x="365.39" y="162.53"/>
      <point x="423.87" y="221.01"/>
      <point x="423.87" y="293.15" type="curve" smooth="yes"/>
      <point x="423.87" y="365.29"/>
      <point x="365.39" y="423.78"/>
      <point x="293.24" y="423.78" type="curve" smooth="yes"/>
      <point x="221.1" y="423.78"/>
      <point x="162.62" y="365.29"/>
      <point x="162.62" y="293.15" type="curve" smooth="yes"/>
      <point x="162.62" y="221.01"/>
      <point x="221.1" y="162.53"/>
      <point x="293.24" y="162.53" type="curve" smooth="yes"/>
    </contour>
  </outline>
</glyph>
<glyph name="ellipsis" format="1">
  <advance width="939"/>
  <unicode hex="2026"/>
  <outline>
    <contour>
      <point x="221.22" y="0"/>
      <point x="249.3" y="28.08"/>
      <point x="249.3" y="62.73" type="curve" smooth="yes"/>
      <point x="249.3" y="97.37"/>
      <point x="221.22" y="125.45"/>
      <point x="186.57" y="125.45" type="curve" smooth="yes"/>
      <point x="151.93" y="125.45"/>
      <point x="123.85" y="97.37"/>
      <point x="123.85" y="62.73" type="curve" smooth="yes"/>
      <point x="123.85" y="28.08"/>
      <point x="151.93" y="0"/>
      <point x="186.57" y="0" type="curve" smooth="yes"/>
    </contour>
    <contour>
      <point x="498.09" y="0"/>
      <point x="526.17" y="28.08"/>
      <point x="526.17" y="62.73" type="curve" smooth="yes"/>
      <point x="526.17" y="97.37"/>
      <point x="498.09" y="125.45"/>
      <point x="463.45" y="125.45" type="curve" smooth="yes"/>
      <point x="428.8" y="125.45"/>
      <point x="400.72" y="97.37"/>
      <point x="400.72" y="62.73" type="curve" smooth="yes"/>
      <point x="400.72" y="28.08"/>
      <point x="428.8" y="0"/>
      <point x="463.45" y="0" type="curve" smooth="yes"/>
    </contour>
    <contour>
      <point x="766.28" y="0"/>
      <point x="794.37" y="28.08"/>
      <point x="794.37" y="62.73" type="curve" smooth="yes"/>
      <point x="794.37" y="97.37"/>
      <point x="766.28" y="125.45"/>
      <point x="731.64" y="125.45" type="curve" smooth="yes"/>
      <point x="697" y="125.45"/>
      <point x="668.92" y="97.37"/>
      <point x="668.92" y="62.73" type="curve" smooth="yes"/>
      <point x="668.92" y="28.08"/>
      <point x="697" y="0"/>
      <point x="731.64" y="0" type="curve" smooth="yes"/>
    </contour>
  </outline>
</glyph>
<glyph name="guilsinglleft" format="1">
  <advance width="600"/>
  <unicode hex="2039"/>
  <outline>
    <contour>
      <point x="396.85" y="67.3" type="line"/>
      <point x="448.53" y="110.47" type="line"/>
      <point x="299.68" y="273.4" type="line"/>
      <point x="448.53" y="436.32" type="line"/>
      <point x="396.85" y="479.48" type="line"/>
      <point x="188.56" y="273.4" type="line"/>
    </contour>
  </outline>
</glyph>
<glyph name="guilsinglright" format="1">
  <advance width="600"/>
  <unicode hex="203A"/>
  <outline>
    <contour>
      <point x="448.53" y="273.4" type="line"/>
      <point x="240.24" y="67.3" type="line"/>
      <point x="188.56" y="110.47" type="line"/>
      <point x="337.41" y="273.4" type="line"/>
      <point x="188.56" y="436.32" type="line"/>
      <point x="240.24" y="479.48" type="line"/>
    </contour>
  </outline>
</glyph>
<glyph name="fraction" format="1">
  <advance width="650"/>
  <unicode hex="2044"/>
  <outline>
    <contour>
      <point x="11" y="18.33" type="line"/>
      <point x="68.69" y="-18" type="line"/>
      <point x="642.44" y="841.34" type="line"/>
      <point x="585.05" y="878" type="line"/>
    </contour>
  </outline>
</glyph>
<glyph name="trademark" format="1">
  <advance width="902"/>
  <unicode hex="2122"/>
  <outline>
    <contour>
      <point x="852.3" y="759" type="line"/>
      <point x="794.29" y="759" type="line"/>
      <point x="669.2" y="506.07" type="line"/>
      <point x="544.05" y="759.16" type="line"/>
      <point x="486.12" y="759.16" type="line"/>
      <point x="486.12" y="357.14" type="line"/>
      <point x="556.12" y="357.14" type="line"/>
      <point x="556.12" y="579.5" type="line"/>
      <point x="626.68" y="426.81" type="line"/>
      <point x="711.73" y="426.81" type="line"/>
      <point x="782.3" y="579.5" type="line"/>
      <point x="782.3" y="357.14" type="line"/>
      <point x="852.3" y="357.14" type="line"/>
    </contour>
    <contour>
      <point x="398.96" y="759.13" type="line"/>
      <point x="132.6" y="759.13" type="line"/>
      <point x="132.6" y="695.13" type="line"/>
      <point x="230.78" y="695.13" type="line"/>
      <point x="230.78" y="357.14" type="line"/>
      <point x="300.78" y="357.14" type="line"/>
      <point x="300.78" y="695.13" type="line"/>
      <point x="398.96" y="695.13" type="line"/>
    </contour>
  </outline>
</glyph>
<glyph name="product" format="1">
  <advance width="791"/>
  <unicode hex="220F"/>
  <outline>
    <contour>
      <point x="765.54" y="662.55" type="line"/>
      <point x="765.54" y="726.55" type="line"/>
      <point x="40" y="726.55" type="line"/>
      <point x="40" y="662.55" type="line"/>
      <point x="121.99" y="662.55" type="line"/>
      <point x="121.99" y="0" type="line"/>
      <point x="191.99" y="0" type="line"/>
      <point x="191.99" y="662.55" type="line"/>
      <point x="613.55" y="662.55" type="line"/>
      <point x="613.55" y="0" type="line"/>
      <point x="683.55" y="0" type="line"/>
      <point x="683.55" y="662.55" type="line"/>
    </contour>
  </outline>
</glyph>
<glyph name="summation" format="1">
  <advance width="700"/>
  <unicode hex="2211"/>
  <outline>
    <contour>
      <point x="652.79" y="663.25" type="line"/>
      <point x="652.79" y="727.25" type="line"/>
      <point x="49" y="727.25" type="line"/>
      <point x="371.06" y="347.63" type="line"/>
      <point x="49" y="-32" type="line"/>
      <point x="652.79" y="-32" type="line"/>
      <point x="652.79" y="32" type="line"/>
      <point x="191.46" y="32" type="line"/>
      <point x="449.65" y="335.92" type="line"/>
      <point x="449.65" y="359.34" type="line"/>
      <point x="191.46" y="663.25" type="line"/>
    </contour>
  </outline>
</glyph>
<glyph name="minus" format="1">
  <advance width="600"/>
  <unicode hex="2212"/>
  <outline>
    <contour>
      <point x="36.13" y="339.08" type="line"/>
      <point x="36.13" y="275.08" type="line"/>
      <point x="575.25" y="275.08" type="line"/>
      <point x="575.25" y="339.08" type="line"/>
    </contour>
  </outline>
</glyph>
<glyph name="infinity" format="1">
  <advance width="732"/>
  <unicode hex="221E"/>
  <outline>
    <contour>
      <point x="493.76" y="425.09"/>
      <point x="419.94" y="348.72"/>
      <point x="369.48" y="292.36" type="curve"/>
      <point x="317.58" y="350.09"/>
      <point x="244.67" y="425.09"/>
      <point x="160.02" y="425.09" type="curve" smooth="yes"/>
      <point x="43.3" y="425.09"/>
      <point x="17" y="303.93"/>
      <point x="17" y="241.85" type="curve" smooth="yes"/>
      <point x="17" y="179.78"/>
      <point x="43.3" y="58.61"/>
      <point x="160.02" y="58.61" type="curve" smooth="yes"/>
      <point x="244.08" y="58.61"/>
      <point x="318.62" y="134.81"/>
      <point x="369.23" y="191.06" type="curve"/>
      <point x="413.45" y="141.08"/>
      <point x="493.82" y="58.61"/>
      <point x="579.03" y="58.61" type="curve" smooth="yes"/>
      <point x="695.75" y="58.61"/>
      <point x="722.43" y="179.78"/>
      <point x="722.43" y="241.85" type="curve" smooth="yes"/>
      <point x="722.43" y="346.89"/>
      <point x="671.13" y="425.09"/>
      <point x="579.03" y="425.09" type="curve" smooth="yes"/>
    </contour>
    <contour>
      <point x="102.67" y="122.61"/>
      <point x="86.62" y="188.17"/>
      <point x="86.62" y="241.85" type="curve" smooth="yes"/>
      <point x="86.62" y="295.53"/>
      <point x="102.67" y="361.09"/>
      <point x="160.02" y="361.09" type="curve" smooth="yes"/>
      <point x="217.11" y="361.09"/>
      <point x="273.67" y="298.52"/>
      <point x="324.32" y="241.84" type="curve"/>
      <point x="275.53" y="187.18"/>
      <point x="216.96" y="122.61"/>
      <point x="160.02" y="122.61" type="curve" smooth="yes"/>
    </contour>
    <contour>
      <point x="519.94" y="122.61"/>
      <point x="454.19" y="196.03"/>
      <point x="414.5" y="241.64" type="curve"/>
      <point x="463.39" y="296.57"/>
      <point x="521.18" y="361.09"/>
      <point x="579.03" y="361.09" type="curve" smooth="yes"/>
      <point x="622.2" y="361.09"/>
      <point x="652.42" y="318.94"/>
      <point x="652.42" y="241.85" type="curve" smooth="yes"/>
      <point x="652.42" y="188.17"/>
      <point x="636.38" y="122.61"/>
      <point x="579.03" y="122.61" type="curve" smooth="yes"/>
    </contour>
  </outline>
</glyph>
<glyph name="integral" format="1">
  <advance width="600"/>
  <unicode hex="222B"/>
  <outline>
    <contour>
      <point x="556.63" y="761.18" type="line"/>
      <point x="539.39" y="769.31"/>
      <point x="500.39" y="783.8"/>
      <point x="458.71" y="783.8" type="curve" smooth="yes"/>
      <point x="402.22" y="783.8"/>
      <point x="340.82" y="757.19"/>
      <point x="322.03" y="652.06" type="curve" smooth="yes"/>
      <point x="299.88" y="525.76"/>
      <point x="207.29" y="-8"/>
      <point x="192.92" y="-58" type="curve" smooth="yes"/>
      <point x="187.35" y="-77"/>
      <point x="167.8" y="-92"/>
      <point x="140.27" y="-92" type="curve" smooth="yes"/>
      <point x="122.1" y="-92"/>
      <point x="100.47" y="-86"/>
      <point x="77.07" y="-70" type="curve"/>
      <point x="38.51" y="-124" type="line"/>
      <point x="73.11" y="-147"/>
      <point x="108.1" y="-157"/>
      <point x="139.85" y="-157" type="curve" smooth="yes"/>
      <point x="198.84" y="-157"/>
      <point x="246.69" y="-123"/>
      <point x="260.22" y="-76" type="curve" smooth="yes"/>
      <point x="275.91" y="-20"/>
      <point x="369.01" y="515.76"/>
      <point x="390.96" y="640.9" type="curve" smooth="yes"/>
      <point x="402.03" y="702.86"/>
      <point x="432.79" y="720.14"/>
      <point x="464.27" y="720.14" type="curve" smooth="yes"/>
      <point x="487.15" y="720.14"/>
      <point x="510.4" y="711.02"/>
      <point x="526.76" y="703.3" type="curve"/>
    </contour>
  </outline>
</glyph>
<glyph name="lessequal" format="1">
  <advance width="600"/>
  <unicode hex="2264"/>
  <outline>
    <contour>
      <point x="175.59" y="307.85" type="line"/>
      <point x="495.77" y="156.55" type="line"/>
      <point x="466.38" y="94.36" type="line"/>
      <point x="115.06" y="267.26" type="line"/>
      <point x="115.06" y="348.44" type="line"/>
      <point x="466.38" y="521.34" type="line"/>
      <point x="495.77" y="459.15" type="line"/>
    </contour>
    <contour>
      <point x="560.4" y="-32" type="line"/>
      <point x="43.29" y="-32" type="line"/>
      <point x="43.29" y="32" type="line"/>
      <point x="560.4" y="32" type="line"/>
    </contour>
  </outline>
</glyph>
